<?xml version="1.0" encoding="utf-8" standalone="no"?>
<!DOCTYPE svg PUBLIC "-//W3C//DTD SVG 1.1//EN"
  "http://www.w3.org/Graphics/SVG/1.1/DTD/svg11.dtd">
<svg xmlns:xlink="http://www.w3.org/1999/xlink" width="728.39952pt" height="368.39952pt" viewBox="0 0 728.39952 368.39952" xmlns="http://www.w3.org/2000/svg" version="1.1">
 <metadata>
  <rdf:RDF xmlns:dc="http://purl.org/dc/elements/1.1/" xmlns:cc="http://creativecommons.org/ns#" xmlns:rdf="http://www.w3.org/1999/02/22-rdf-syntax-ns#">
   <cc:Work>
    <dc:type rdf:resource="http://purl.org/dc/dcmitype/StillImage"/>
    <dc:date>2026-07-22T19:29:28.157436</dc:date>
    <dc:format>image/svg+xml</dc:format>
    <dc:creator>
     <cc:Agent>
      <dc:title>Matplotlib v3.11.1, https://matplotlib.org/</dc:title>
     </cc:Agent>
    </dc:creator>
   </cc:Work>
  </rdf:RDF>
 </metadata>
 <defs>
  <style type="text/css">*{stroke-linejoin: round; stroke-linecap: butt}</style>
 </defs>
 <g id="figure_1">
  <g id="patch_1">
   <path d="M 0 368.39952 
L 728.39952 368.39952 
L 728.39952 0 
L 0 0 
L 0 368.39952 
z
" style="fill: none"/>
  </g>
  <g id="axes_1">
   <g id="patch_2">
    <path d="M 33 333.698739 
L 721.19952 333.698739 
L 721.19952 37.601417 
L 33 37.601417 
L 33 333.698739 
z
" style="fill: none"/>
   </g>
   <g id="patch_3">
    <path d="M 64.281796 333.698739 
L 74.885403 333.698739 
L 74.885403 333.698739 
L 64.281796 333.698739 
z
" clip-path="url(#p2db00c5072)" style="fill: #648fff; stroke: #000000; stroke-width: 0.25; stroke-linejoin: miter"/>
   </g>
   <g id="patch_4">
    <path d="M 74.885403 333.698739 
L 85.489365 333.698739 
L 85.489365 333.698739 
L 74.885403 333.698739 
z
" clip-path="url(#p2db00c5072)" style="fill: #648fff; stroke: #000000; stroke-width: 0.25; stroke-linejoin: miter"/>
   </g>
   <g id="patch_5">
    <path d="M 85.48981 333.698739 
L 96.093604 333.698739 
L 96.093604 326.752507 
L 85.48981 326.752507 
z
" clip-path="url(#p2db00c5072)" style="fill: #648fff; stroke: #000000; stroke-width: 0.25; stroke-linejoin: miter"/>
   </g>
   <g id="patch_6">
    <path d="M 96.094018 333.698739 
L 106.697714 333.698739 
L 106.697714 323.829125 
L 96.094018 323.829125 
z
" clip-path="url(#p2db00c5072)" style="fill: #648fff; stroke: #000000; stroke-width: 0.25; stroke-linejoin: miter"/>
   </g>
   <g id="patch_7">
    <path d="M 106.697714 333.698739 
L 117.301558 333.698739 
L 117.301558 327.131593 
L 106.697714 327.131593 
z
" clip-path="url(#p2db00c5072)" style="fill: #648fff; stroke: #000000; stroke-width: 0.25; stroke-linejoin: miter"/>
   </g>
   <g id="patch_8">
    <path d="M 117.301558 333.698739 
L 127.905625 333.698739 
L 127.905625 328.404362 
L 117.301558 328.404362 
z
" clip-path="url(#p2db00c5072)" style="fill: #648fff; stroke: #000000; stroke-width: 0.25; stroke-linejoin: miter"/>
   </g>
   <g id="patch_9">
    <path d="M 127.905291 333.698739 
L 138.509335 333.698739 
L 138.509335 329.707973 
L 127.905291 329.707973 
z
" clip-path="url(#p2db00c5072)" style="fill: #648fff; stroke: #000000; stroke-width: 0.25; stroke-linejoin: miter"/>
   </g>
   <g id="patch_10">
    <path d="M 138.509957 333.698739 
L 149.113757 333.698739 
L 149.113757 330.803757 
L 138.509957 330.803757 
z
" clip-path="url(#p2db00c5072)" style="fill: #648fff; stroke: #000000; stroke-width: 0.25; stroke-linejoin: miter"/>
   </g>
   <g id="patch_11">
    <path d="M 149.113757 333.698739 
L 159.717591 333.698739 
L 159.717591 328.9795 
L 149.113757 328.9795 
z
" clip-path="url(#p2db00c5072)" style="fill: #648fff; stroke: #000000; stroke-width: 0.25; stroke-linejoin: miter"/>
   </g>
   <g id="patch_12">
    <path d="M 159.717322 333.698739 
L 170.321465 333.698739 
L 170.321465 330.145467 
L 159.717322 330.145467 
z
" clip-path="url(#p2db00c5072)" style="fill: #648fff; stroke: #000000; stroke-width: 0.25; stroke-linejoin: miter"/>
   </g>
   <g id="patch_13">
    <path d="M 170.321465 333.698739 
L 180.925453 333.698739 
L 180.925453 330.91749 
L 170.321465 330.91749 
z
" clip-path="url(#p2db00c5072)" style="fill: #648fff; stroke: #000000; stroke-width: 0.25; stroke-linejoin: miter"/>
   </g>
   <g id="patch_14">
    <path d="M 180.925453 333.698739 
L 191.529435 333.698739 
L 191.529435 332.164189 
L 180.925453 332.164189 
z
" clip-path="url(#p2db00c5072)" style="fill: #648fff; stroke: #000000; stroke-width: 0.25; stroke-linejoin: miter"/>
   </g>
   <g id="patch_15">
    <path d="M 191.529435 333.698739 
L 202.133329 333.698739 
L 202.133329 333.060774 
L 191.529435 333.060774 
z
" clip-path="url(#p2db00c5072)" style="fill: #648fff; stroke: #000000; stroke-width: 0.25; stroke-linejoin: miter"/>
   </g>
   <g id="patch_16">
    <path d="M 202.133733 333.698739 
L 212.737782 333.698739 
L 212.737782 332.779144 
L 202.133733 332.779144 
z
" clip-path="url(#p2db00c5072)" style="fill: #648fff; stroke: #000000; stroke-width: 0.25; stroke-linejoin: miter"/>
   </g>
   <g id="patch_17">
    <path d="M 212.737594 333.698739 
L 223.341761 333.698739 
L 223.341761 333.493252 
L 212.737594 333.493252 
z
" clip-path="url(#p2db00c5072)" style="fill: #648fff; stroke: #000000; stroke-width: 0.25; stroke-linejoin: miter"/>
   </g>
   <g id="patch_18">
    <path d="M 223.341412 333.698739 
L 233.945472 333.698739 
L 233.945472 333.518179 
L 223.341412 333.518179 
z
" clip-path="url(#p2db00c5072)" style="fill: #648fff; stroke: #000000; stroke-width: 0.25; stroke-linejoin: miter"/>
   </g>
   <g id="patch_19">
    <path d="M 233.945635 333.698739 
L 244.549586 333.698739 
L 244.549586 333.608477 
L 233.945635 333.608477 
z
" clip-path="url(#p2db00c5072)" style="fill: #648fff; stroke: #000000; stroke-width: 0.25; stroke-linejoin: miter"/>
   </g>
   <g id="patch_20">
    <path d="M 244.549434 333.698739 
L 255.153564 333.698739 
L 255.153564 333.574394 
L 244.549434 333.574394 
z
" clip-path="url(#p2db00c5072)" style="fill: #648fff; stroke: #000000; stroke-width: 0.25; stroke-linejoin: miter"/>
   </g>
   <g id="patch_21">
    <path d="M 255.153564 333.698739 
L 265.757514 333.698739 
L 265.757514 333.642605 
L 255.153564 333.642605 
z
" clip-path="url(#p2db00c5072)" style="fill: #648fff; stroke: #000000; stroke-width: 0.25; stroke-linejoin: miter"/>
   </g>
   <g id="patch_22">
    <path d="M 265.757645 333.698739 
L 276.361628 333.698739 
L 276.361628 333.480275 
L 265.757645 333.480275 
z
" clip-path="url(#p2db00c5072)" style="fill: #648fff; stroke: #000000; stroke-width: 0.25; stroke-linejoin: miter"/>
   </g>
   <g id="patch_23">
    <path d="M 276.361628 333.698739 
L 286.965574 333.698739 
L 286.965574 329.852436 
L 276.361628 329.852436 
z
" clip-path="url(#p2db00c5072)" style="fill: #648fff; stroke: #000000; stroke-width: 0.25; stroke-linejoin: miter"/>
   </g>
   <g id="patch_24">
    <path d="M 286.965574 333.698739 
L 297.569589 333.698739 
L 297.569589 310.074067 
L 286.965574 310.074067 
z
" clip-path="url(#p2db00c5072)" style="fill: #648fff; stroke: #000000; stroke-width: 0.25; stroke-linejoin: miter"/>
   </g>
   <g id="patch_25">
    <path d="M 297.569484 333.698739 
L 308.173569 333.698739 
L 308.173569 263.922212 
L 297.569484 263.922212 
z
" clip-path="url(#p2db00c5072)" style="fill: #648fff; stroke: #000000; stroke-width: 0.25; stroke-linejoin: miter"/>
   </g>
   <g id="patch_26">
    <path d="M 308.173569 333.698739 
L 318.777578 333.698739 
L 318.777578 236.360248 
L 308.173569 236.360248 
z
" clip-path="url(#p2db00c5072)" style="fill: #648fff; stroke: #000000; stroke-width: 0.25; stroke-linejoin: miter"/>
   </g>
   <g id="patch_27">
    <path d="M 318.777578 333.698739 
L 329.38156 333.698739 
L 329.38156 221.328174 
L 318.777578 221.328174 
z
" clip-path="url(#p2db00c5072)" style="fill: #648fff; stroke: #000000; stroke-width: 0.25; stroke-linejoin: miter"/>
   </g>
   <g id="patch_28">
    <path d="M 329.38156 333.698739 
L 339.985612 333.698739 
L 339.985612 263.649068 
L 329.38156 263.649068 
z
" clip-path="url(#p2db00c5072)" style="fill: #648fff; stroke: #000000; stroke-width: 0.25; stroke-linejoin: miter"/>
   </g>
   <g id="patch_29">
    <path d="M 339.985612 333.698739 
L 350.589621 333.698739 
L 350.589621 321.242467 
L 339.985612 321.242467 
z
" clip-path="url(#p2db00c5072)" style="fill: #648fff; stroke: #000000; stroke-width: 0.25; stroke-linejoin: miter"/>
   </g>
   <g id="patch_30">
    <path d="M 350.589621 333.698739 
L 361.193647 333.698739 
L 361.193647 332.30324 
L 350.589621 332.30324 
z
" clip-path="url(#p2db00c5072)" style="fill: #648fff; stroke: #000000; stroke-width: 0.25; stroke-linejoin: miter"/>
   </g>
   <g id="patch_31">
    <path d="M 361.193647 333.698739 
L 371.797628 333.698739 
L 371.797628 333.030978 
L 361.193647 333.030978 
z
" clip-path="url(#p2db00c5072)" style="fill: #648fff; stroke: #000000; stroke-width: 0.25; stroke-linejoin: miter"/>
   </g>
   <g id="patch_32">
    <path d="M 371.797628 333.698739 
L 382.401657 333.698739 
L 382.401657 332.737375 
L 371.797628 332.737375 
z
" clip-path="url(#p2db00c5072)" style="fill: #648fff; stroke: #000000; stroke-width: 0.25; stroke-linejoin: miter"/>
   </g>
   <g id="patch_33">
    <path d="M 382.401657 333.698739 
L 393.005695 333.698739 
L 393.005695 333.596306 
L 382.401657 333.596306 
z
" clip-path="url(#p2db00c5072)" style="fill: #648fff; stroke: #000000; stroke-width: 0.25; stroke-linejoin: miter"/>
   </g>
   <g id="patch_34">
    <path d="M 393.005639 333.698739 
L 403.609627 333.698739 
L 403.609627 333.631343 
L 393.005639 333.631343 
z
" clip-path="url(#p2db00c5072)" style="fill: #648fff; stroke: #000000; stroke-width: 0.25; stroke-linejoin: miter"/>
   </g>
   <g id="patch_35">
    <path d="M 403.609679 333.698739 
L 414.213683 333.698739 
L 414.213683 333.698739 
L 403.609679 333.698739 
z
" clip-path="url(#p2db00c5072)" style="fill: #648fff; stroke: #000000; stroke-width: 0.25; stroke-linejoin: miter"/>
   </g>
   <g id="patch_36">
    <path d="M 414.213635 333.698739 
L 424.817676 333.698739 
L 424.817676 333.609048 
L 414.213635 333.609048 
z
" clip-path="url(#p2db00c5072)" style="fill: #648fff; stroke: #000000; stroke-width: 0.25; stroke-linejoin: miter"/>
   </g>
   <g id="patch_37">
    <path d="M 424.817631 333.698739 
L 435.421609 333.698739 
L 435.421609 333.698739 
L 424.817631 333.698739 
z
" clip-path="url(#p2db00c5072)" style="fill: #648fff; stroke: #000000; stroke-width: 0.25; stroke-linejoin: miter"/>
   </g>
   <g id="patch_38">
    <path d="M 435.421609 333.698739 
L 446.025648 333.698739 
L 446.025648 333.698739 
L 435.421609 333.698739 
z
" clip-path="url(#p2db00c5072)" style="fill: #648fff; stroke: #000000; stroke-width: 0.25; stroke-linejoin: miter"/>
   </g>
   <g id="patch_39">
    <path d="M 446.025648 333.698739 
L 456.629646 333.698739 
L 456.629646 333.698739 
L 446.025648 333.698739 
z
" clip-path="url(#p2db00c5072)" style="fill: #648fff; stroke: #000000; stroke-width: 0.25; stroke-linejoin: miter"/>
   </g>
   <g id="patch_40">
    <path d="M 456.629682 333.698739 
L 467.23368 333.698739 
L 467.23368 333.698739 
L 456.629682 333.698739 
z
" clip-path="url(#p2db00c5072)" style="fill: #648fff; stroke: #000000; stroke-width: 0.25; stroke-linejoin: miter"/>
   </g>
   <g id="patch_41">
    <path d="M 467.233646 333.698739 
L 477.837672 333.698739 
L 477.837672 333.698739 
L 467.233646 333.698739 
z
" clip-path="url(#p2db00c5072)" style="fill: #648fff; stroke: #000000; stroke-width: 0.25; stroke-linejoin: miter"/>
   </g>
   <g id="patch_42">
    <path d="M 477.837641 333.698739 
L 488.441642 333.698739 
L 488.441642 333.698739 
L 477.837641 333.698739 
z
" clip-path="url(#p2db00c5072)" style="fill: #648fff; stroke: #000000; stroke-width: 0.25; stroke-linejoin: miter"/>
   </g>
   <g id="patch_43">
    <path d="M 488.441642 333.698739 
L 499.045652 333.698739 
L 499.045652 333.698739 
L 488.441642 333.698739 
z
" clip-path="url(#p2db00c5072)" style="fill: #648fff; stroke: #000000; stroke-width: 0.25; stroke-linejoin: miter"/>
   </g>
   <g id="patch_44">
    <path d="M 499.045625 333.698739 
L 509.649653 333.698739 
L 509.649653 333.698739 
L 499.045625 333.698739 
z
" clip-path="url(#p2db00c5072)" style="fill: #648fff; stroke: #000000; stroke-width: 0.25; stroke-linejoin: miter"/>
   </g>
   <g id="patch_45">
    <path d="M 509.649653 333.698739 
L 520.253634 333.698739 
L 520.253634 333.698739 
L 509.649653 333.698739 
z
" clip-path="url(#p2db00c5072)" style="fill: #648fff; stroke: #000000; stroke-width: 0.25; stroke-linejoin: miter"/>
   </g>
   <g id="patch_46">
    <path d="M 520.253657 333.698739 
L 530.857675 333.698739 
L 530.857675 333.698739 
L 520.253657 333.698739 
z
" clip-path="url(#p2db00c5072)" style="fill: #648fff; stroke: #000000; stroke-width: 0.25; stroke-linejoin: miter"/>
   </g>
   <g id="patch_47">
    <path d="M 530.857675 333.698739 
L 541.46168 333.698739 
L 541.46168 333.698739 
L 530.857675 333.698739 
z
" clip-path="url(#p2db00c5072)" style="fill: #648fff; stroke: #000000; stroke-width: 0.25; stroke-linejoin: miter"/>
   </g>
   <g id="patch_48">
    <path d="M 541.4617 333.698739 
L 552.065682 333.698739 
L 552.065682 333.698739 
L 541.4617 333.698739 
z
" clip-path="url(#p2db00c5072)" style="fill: #648fff; stroke: #000000; stroke-width: 0.25; stroke-linejoin: miter"/>
   </g>
   <g id="patch_49">
    <path d="M 552.065701 333.698739 
L 562.669692 333.698739 
L 562.669692 333.698739 
L 552.065701 333.698739 
z
" clip-path="url(#p2db00c5072)" style="fill: #648fff; stroke: #000000; stroke-width: 0.25; stroke-linejoin: miter"/>
   </g>
   <g id="patch_50">
    <path d="M 562.669657 333.698739 
L 573.273674 333.698739 
L 573.273674 333.698739 
L 562.669657 333.698739 
z
" clip-path="url(#p2db00c5072)" style="fill: #648fff; stroke: #000000; stroke-width: 0.25; stroke-linejoin: miter"/>
   </g>
   <g id="patch_51">
    <path d="M 573.273658 333.698739 
L 583.877674 333.698739 
L 583.877674 333.698739 
L 573.273658 333.698739 
z
" clip-path="url(#p2db00c5072)" style="fill: #648fff; stroke: #000000; stroke-width: 0.25; stroke-linejoin: miter"/>
   </g>
   <g id="patch_52">
    <path d="M 583.877674 333.698739 
L 594.48168 333.698739 
L 594.48168 333.698739 
L 583.877674 333.698739 
z
" clip-path="url(#p2db00c5072)" style="fill: #648fff; stroke: #000000; stroke-width: 0.25; stroke-linejoin: miter"/>
   </g>
   <g id="patch_53">
    <path d="M 594.48168 333.698739 
L 605.08568 333.698739 
L 605.08568 333.698739 
L 594.48168 333.698739 
z
" clip-path="url(#p2db00c5072)" style="fill: #648fff; stroke: #000000; stroke-width: 0.25; stroke-linejoin: miter"/>
   </g>
   <g id="patch_54">
    <path d="M 605.085693 333.698739 
L 615.689704 333.698739 
L 615.689704 333.698739 
L 605.085693 333.698739 
z
" clip-path="url(#p2db00c5072)" style="fill: #648fff; stroke: #000000; stroke-width: 0.25; stroke-linejoin: miter"/>
   </g>
   <g id="patch_55">
    <path d="M 615.689692 333.698739 
L 626.293685 333.698739 
L 626.293685 333.698739 
L 615.689692 333.698739 
z
" clip-path="url(#p2db00c5072)" style="fill: #648fff; stroke: #000000; stroke-width: 0.25; stroke-linejoin: miter"/>
   </g>
   <g id="patch_56">
    <path d="M 626.293685 333.698739 
L 636.897698 333.698739 
L 636.897698 333.698739 
L 626.293685 333.698739 
z
" clip-path="url(#p2db00c5072)" style="fill: #648fff; stroke: #000000; stroke-width: 0.25; stroke-linejoin: miter"/>
   </g>
   <g id="patch_57">
    <path d="M 636.897698 333.698739 
L 647.501696 333.698739 
L 647.501696 333.698739 
L 636.897698 333.698739 
z
" clip-path="url(#p2db00c5072)" style="fill: #648fff; stroke: #000000; stroke-width: 0.25; stroke-linejoin: miter"/>
   </g>
   <g id="patch_58">
    <path d="M 647.501696 333.698739 
L 658.105703 333.698739 
L 658.105703 333.698739 
L 647.501696 333.698739 
z
" clip-path="url(#p2db00c5072)" style="fill: #648fff; stroke: #000000; stroke-width: 0.25; stroke-linejoin: miter"/>
   </g>
   <g id="patch_59">
    <path d="M 658.105712 333.698739 
L 668.709708 333.698739 
L 668.709708 333.698739 
L 658.105712 333.698739 
z
" clip-path="url(#p2db00c5072)" style="fill: #648fff; stroke: #000000; stroke-width: 0.25; stroke-linejoin: miter"/>
   </g>
   <g id="patch_60">
    <path d="M 668.709708 333.698739 
L 679.313708 333.698739 
L 679.313708 333.698739 
L 668.709708 333.698739 
z
" clip-path="url(#p2db00c5072)" style="fill: #648fff; stroke: #000000; stroke-width: 0.25; stroke-linejoin: miter"/>
   </g>
   <g id="patch_61">
    <path d="M 679.313716 333.698739 
L 689.917724 333.698739 
L 689.917724 333.698739 
L 679.313716 333.698739 
z
" clip-path="url(#p2db00c5072)" style="fill: #648fff; stroke: #000000; stroke-width: 0.25; stroke-linejoin: miter"/>
   </g>
   <g id="patch_62">
    <path d="M 64.281796 333.698739 
L 74.885403 333.698739 
L 74.885403 333.698739 
L 64.281796 333.698739 
z
" clip-path="url(#p2db00c5072)" style="fill: #785ef0; stroke: #000000; stroke-width: 0.25; stroke-linejoin: miter"/>
   </g>
   <g id="patch_63">
    <path d="M 74.885403 333.698739 
L 85.489365 333.698739 
L 85.489365 333.698739 
L 74.885403 333.698739 
z
" clip-path="url(#p2db00c5072)" style="fill: #785ef0; stroke: #000000; stroke-width: 0.25; stroke-linejoin: miter"/>
   </g>
   <g id="patch_64">
    <path d="M 85.48981 333.698739 
L 96.093604 333.698739 
L 96.093604 325.795359 
L 85.48981 325.795359 
z
" clip-path="url(#p2db00c5072)" style="fill: #785ef0; stroke: #000000; stroke-width: 0.25; stroke-linejoin: miter"/>
   </g>
   <g id="patch_65">
    <path d="M 96.094018 333.698739 
L 106.697714 333.698739 
L 106.697714 317.890063 
L 96.094018 317.890063 
z
" clip-path="url(#p2db00c5072)" style="fill: #785ef0; stroke: #000000; stroke-width: 0.25; stroke-linejoin: miter"/>
   </g>
   <g id="patch_66">
    <path d="M 106.697714 333.698739 
L 117.301558 333.698739 
L 117.301558 327.21642 
L 106.697714 327.21642 
z
" clip-path="url(#p2db00c5072)" style="fill: #785ef0; stroke: #000000; stroke-width: 0.25; stroke-linejoin: miter"/>
   </g>
   <g id="patch_67">
    <path d="M 117.301558 333.698739 
L 127.905625 333.698739 
L 127.905625 328.245639 
L 117.301558 328.245639 
z
" clip-path="url(#p2db00c5072)" style="fill: #785ef0; stroke: #000000; stroke-width: 0.25; stroke-linejoin: miter"/>
   </g>
   <g id="patch_68">
    <path d="M 127.905291 333.698739 
L 138.509335 333.698739 
L 138.509335 328.105488 
L 127.905291 328.105488 
z
" clip-path="url(#p2db00c5072)" style="fill: #785ef0; stroke: #000000; stroke-width: 0.25; stroke-linejoin: miter"/>
   </g>
   <g id="patch_69">
    <path d="M 138.509957 333.698739 
L 149.113757 333.698739 
L 149.113757 328.755754 
L 138.509957 328.755754 
z
" clip-path="url(#p2db00c5072)" style="fill: #785ef0; stroke: #000000; stroke-width: 0.25; stroke-linejoin: miter"/>
   </g>
   <g id="patch_70">
    <path d="M 149.113757 333.698739 
L 159.717591 333.698739 
L 159.717591 328.274373 
L 149.113757 328.274373 
z
" clip-path="url(#p2db00c5072)" style="fill: #785ef0; stroke: #000000; stroke-width: 0.25; stroke-linejoin: miter"/>
   </g>
   <g id="patch_71">
    <path d="M 159.717322 333.698739 
L 170.321465 333.698739 
L 170.321465 329.208434 
L 159.717322 329.208434 
z
" clip-path="url(#p2db00c5072)" style="fill: #785ef0; stroke: #000000; stroke-width: 0.25; stroke-linejoin: miter"/>
   </g>
   <g id="patch_72">
    <path d="M 170.321465 333.698739 
L 180.925453 333.698739 
L 180.925453 330.731512 
L 170.321465 330.731512 
z
" clip-path="url(#p2db00c5072)" style="fill: #785ef0; stroke: #000000; stroke-width: 0.25; stroke-linejoin: miter"/>
   </g>
   <g id="patch_73">
    <path d="M 180.925453 333.698739 
L 191.529435 333.698739 
L 191.529435 330.944978 
L 180.925453 330.944978 
z
" clip-path="url(#p2db00c5072)" style="fill: #785ef0; stroke: #000000; stroke-width: 0.25; stroke-linejoin: miter"/>
   </g>
   <g id="patch_74">
    <path d="M 191.529435 333.698739 
L 202.133329 333.698739 
L 202.133329 332.42821 
L 191.529435 332.42821 
z
" clip-path="url(#p2db00c5072)" style="fill: #785ef0; stroke: #000000; stroke-width: 0.25; stroke-linejoin: miter"/>
   </g>
   <g id="patch_75">
    <path d="M 202.133733 333.698739 
L 212.737782 333.698739 
L 212.737782 332.233188 
L 202.133733 332.233188 
z
" clip-path="url(#p2db00c5072)" style="fill: #785ef0; stroke: #000000; stroke-width: 0.25; stroke-linejoin: miter"/>
   </g>
   <g id="patch_76">
    <path d="M 212.737594 333.698739 
L 223.341761 333.698739 
L 223.341761 333.416997 
L 212.737594 333.416997 
z
" clip-path="url(#p2db00c5072)" style="fill: #785ef0; stroke: #000000; stroke-width: 0.25; stroke-linejoin: miter"/>
   </g>
   <g id="patch_77">
    <path d="M 223.341412 333.698739 
L 233.945472 333.698739 
L 233.945472 333.500819 
L 223.341412 333.500819 
z
" clip-path="url(#p2db00c5072)" style="fill: #785ef0; stroke: #000000; stroke-width: 0.25; stroke-linejoin: miter"/>
   </g>
   <g id="patch_78">
    <path d="M 233.945635 333.698739 
L 244.549586 333.698739 
L 244.549586 333.358094 
L 233.945635 333.358094 
z
" clip-path="url(#p2db00c5072)" style="fill: #785ef0; stroke: #000000; stroke-width: 0.25; stroke-linejoin: miter"/>
   </g>
   <g id="patch_79">
    <path d="M 244.549434 333.698739 
L 255.153564 333.698739 
L 255.153564 333.698739 
L 244.549434 333.698739 
z
" clip-path="url(#p2db00c5072)" style="fill: #785ef0; stroke: #000000; stroke-width: 0.25; stroke-linejoin: miter"/>
   </g>
   <g id="patch_80">
    <path d="M 255.153564 333.698739 
L 265.757514 333.698739 
L 265.757514 333.698739 
L 255.153564 333.698739 
z
" clip-path="url(#p2db00c5072)" style="fill: #785ef0; stroke: #000000; stroke-width: 0.25; stroke-linejoin: miter"/>
   </g>
   <g id="patch_81">
    <path d="M 265.757645 333.698739 
L 276.361628 333.698739 
L 276.361628 333.609048 
L 265.757645 333.609048 
z
" clip-path="url(#p2db00c5072)" style="fill: #785ef0; stroke: #000000; stroke-width: 0.25; stroke-linejoin: miter"/>
   </g>
   <g id="patch_82">
    <path d="M 276.361628 333.698739 
L 286.965574 333.698739 
L 286.965574 332.914426 
L 276.361628 332.914426 
z
" clip-path="url(#p2db00c5072)" style="fill: #785ef0; stroke: #000000; stroke-width: 0.25; stroke-linejoin: miter"/>
   </g>
   <g id="patch_83">
    <path d="M 286.965574 333.698739 
L 297.569589 333.698739 
L 297.569589 323.656558 
L 286.965574 323.656558 
z
" clip-path="url(#p2db00c5072)" style="fill: #785ef0; stroke: #000000; stroke-width: 0.25; stroke-linejoin: miter"/>
   </g>
   <g id="patch_84">
    <path d="M 297.569484 333.698739 
L 308.173569 333.698739 
L 308.173569 299.623556 
L 297.569484 299.623556 
z
" clip-path="url(#p2db00c5072)" style="fill: #785ef0; stroke: #000000; stroke-width: 0.25; stroke-linejoin: miter"/>
   </g>
   <g id="patch_85">
    <path d="M 308.173569 333.698739 
L 318.777578 333.698739 
L 318.777578 267.923296 
L 308.173569 267.923296 
z
" clip-path="url(#p2db00c5072)" style="fill: #785ef0; stroke: #000000; stroke-width: 0.25; stroke-linejoin: miter"/>
   </g>
   <g id="patch_86">
    <path d="M 318.777578 333.698739 
L 329.38156 333.698739 
L 329.38156 247.877135 
L 318.777578 247.877135 
z
" clip-path="url(#p2db00c5072)" style="fill: #785ef0; stroke: #000000; stroke-width: 0.25; stroke-linejoin: miter"/>
   </g>
   <g id="patch_87">
    <path d="M 329.38156 333.698739 
L 339.985612 333.698739 
L 339.985612 249.366428 
L 329.38156 249.366428 
z
" clip-path="url(#p2db00c5072)" style="fill: #785ef0; stroke: #000000; stroke-width: 0.25; stroke-linejoin: miter"/>
   </g>
   <g id="patch_88">
    <path d="M 339.985612 333.698739 
L 350.589621 333.698739 
L 350.589621 297.72407 
L 339.985612 297.72407 
z
" clip-path="url(#p2db00c5072)" style="fill: #785ef0; stroke: #000000; stroke-width: 0.25; stroke-linejoin: miter"/>
   </g>
   <g id="patch_89">
    <path d="M 350.589621 333.698739 
L 361.193647 333.698739 
L 361.193647 329.625116 
L 350.589621 329.625116 
z
" clip-path="url(#p2db00c5072)" style="fill: #785ef0; stroke: #000000; stroke-width: 0.25; stroke-linejoin: miter"/>
   </g>
   <g id="patch_90">
    <path d="M 361.193647 333.698739 
L 371.797628 333.698739 
L 371.797628 333.241241 
L 361.193647 333.241241 
z
" clip-path="url(#p2db00c5072)" style="fill: #785ef0; stroke: #000000; stroke-width: 0.25; stroke-linejoin: miter"/>
   </g>
   <g id="patch_91">
    <path d="M 371.797628 333.698739 
L 382.401657 333.698739 
L 382.401657 333.331462 
L 371.797628 333.331462 
z
" clip-path="url(#p2db00c5072)" style="fill: #785ef0; stroke: #000000; stroke-width: 0.25; stroke-linejoin: miter"/>
   </g>
   <g id="patch_92">
    <path d="M 382.401657 333.698739 
L 393.005695 333.698739 
L 393.005695 333.619178 
L 382.401657 333.619178 
z
" clip-path="url(#p2db00c5072)" style="fill: #785ef0; stroke: #000000; stroke-width: 0.25; stroke-linejoin: miter"/>
   </g>
   <g id="patch_93">
    <path d="M 393.005639 333.698739 
L 403.609627 333.698739 
L 403.609627 333.520183 
L 393.005639 333.520183 
z
" clip-path="url(#p2db00c5072)" style="fill: #785ef0; stroke: #000000; stroke-width: 0.25; stroke-linejoin: miter"/>
   </g>
   <g id="patch_94">
    <path d="M 403.609679 333.698739 
L 414.213683 333.698739 
L 414.213683 333.698739 
L 403.609679 333.698739 
z
" clip-path="url(#p2db00c5072)" style="fill: #785ef0; stroke: #000000; stroke-width: 0.25; stroke-linejoin: miter"/>
   </g>
   <g id="patch_95">
    <path d="M 414.213635 333.698739 
L 424.817676 333.698739 
L 424.817676 333.698739 
L 414.213635 333.698739 
z
" clip-path="url(#p2db00c5072)" style="fill: #785ef0; stroke: #000000; stroke-width: 0.25; stroke-linejoin: miter"/>
   </g>
   <g id="patch_96">
    <path d="M 424.817631 333.698739 
L 435.421609 333.698739 
L 435.421609 333.698739 
L 424.817631 333.698739 
z
" clip-path="url(#p2db00c5072)" style="fill: #785ef0; stroke: #000000; stroke-width: 0.25; stroke-linejoin: miter"/>
   </g>
   <g id="patch_97">
    <path d="M 435.421609 333.698739 
L 446.025648 333.698739 
L 446.025648 333.609713 
L 435.421609 333.609713 
z
" clip-path="url(#p2db00c5072)" style="fill: #785ef0; stroke: #000000; stroke-width: 0.25; stroke-linejoin: miter"/>
   </g>
   <g id="patch_98">
    <path d="M 446.025648 333.698739 
L 456.629646 333.698739 
L 456.629646 333.698739 
L 446.025648 333.698739 
z
" clip-path="url(#p2db00c5072)" style="fill: #785ef0; stroke: #000000; stroke-width: 0.25; stroke-linejoin: miter"/>
   </g>
   <g id="patch_99">
    <path d="M 456.629682 333.698739 
L 467.23368 333.698739 
L 467.23368 333.698739 
L 456.629682 333.698739 
z
" clip-path="url(#p2db00c5072)" style="fill: #785ef0; stroke: #000000; stroke-width: 0.25; stroke-linejoin: miter"/>
   </g>
   <g id="patch_100">
    <path d="M 467.233646 333.698739 
L 477.837672 333.698739 
L 477.837672 333.698739 
L 467.233646 333.698739 
z
" clip-path="url(#p2db00c5072)" style="fill: #785ef0; stroke: #000000; stroke-width: 0.25; stroke-linejoin: miter"/>
   </g>
   <g id="patch_101">
    <path d="M 477.837641 333.698739 
L 488.441642 333.698739 
L 488.441642 333.698739 
L 477.837641 333.698739 
z
" clip-path="url(#p2db00c5072)" style="fill: #785ef0; stroke: #000000; stroke-width: 0.25; stroke-linejoin: miter"/>
   </g>
   <g id="patch_102">
    <path d="M 488.441642 333.698739 
L 499.045652 333.698739 
L 499.045652 333.698739 
L 488.441642 333.698739 
z
" clip-path="url(#p2db00c5072)" style="fill: #785ef0; stroke: #000000; stroke-width: 0.25; stroke-linejoin: miter"/>
   </g>
   <g id="patch_103">
    <path d="M 499.045625 333.698739 
L 509.649653 333.698739 
L 509.649653 333.698739 
L 499.045625 333.698739 
z
" clip-path="url(#p2db00c5072)" style="fill: #785ef0; stroke: #000000; stroke-width: 0.25; stroke-linejoin: miter"/>
   </g>
   <g id="patch_104">
    <path d="M 509.649653 333.698739 
L 520.253634 333.698739 
L 520.253634 333.698739 
L 509.649653 333.698739 
z
" clip-path="url(#p2db00c5072)" style="fill: #785ef0; stroke: #000000; stroke-width: 0.25; stroke-linejoin: miter"/>
   </g>
   <g id="patch_105">
    <path d="M 520.253657 333.698739 
L 530.857675 333.698739 
L 530.857675 333.698739 
L 520.253657 333.698739 
z
" clip-path="url(#p2db00c5072)" style="fill: #785ef0; stroke: #000000; stroke-width: 0.25; stroke-linejoin: miter"/>
   </g>
   <g id="patch_106">
    <path d="M 530.857675 333.698739 
L 541.46168 333.698739 
L 541.46168 333.698739 
L 530.857675 333.698739 
z
" clip-path="url(#p2db00c5072)" style="fill: #785ef0; stroke: #000000; stroke-width: 0.25; stroke-linejoin: miter"/>
   </g>
   <g id="patch_107">
    <path d="M 541.4617 333.698739 
L 552.065682 333.698739 
L 552.065682 333.698739 
L 541.4617 333.698739 
z
" clip-path="url(#p2db00c5072)" style="fill: #785ef0; stroke: #000000; stroke-width: 0.25; stroke-linejoin: miter"/>
   </g>
   <g id="patch_108">
    <path d="M 552.065701 333.698739 
L 562.669692 333.698739 
L 562.669692 333.698739 
L 552.065701 333.698739 
z
" clip-path="url(#p2db00c5072)" style="fill: #785ef0; stroke: #000000; stroke-width: 0.25; stroke-linejoin: miter"/>
   </g>
   <g id="patch_109">
    <path d="M 562.669657 333.698739 
L 573.273674 333.698739 
L 573.273674 333.698739 
L 562.669657 333.698739 
z
" clip-path="url(#p2db00c5072)" style="fill: #785ef0; stroke: #000000; stroke-width: 0.25; stroke-linejoin: miter"/>
   </g>
   <g id="patch_110">
    <path d="M 573.273658 333.698739 
L 583.877674 333.698739 
L 583.877674 333.698739 
L 573.273658 333.698739 
z
" clip-path="url(#p2db00c5072)" style="fill: #785ef0; stroke: #000000; stroke-width: 0.25; stroke-linejoin: miter"/>
   </g>
   <g id="patch_111">
    <path d="M 583.877674 333.698739 
L 594.48168 333.698739 
L 594.48168 333.698739 
L 583.877674 333.698739 
z
" clip-path="url(#p2db00c5072)" style="fill: #785ef0; stroke: #000000; stroke-width: 0.25; stroke-linejoin: miter"/>
   </g>
   <g id="patch_112">
    <path d="M 594.48168 333.698739 
L 605.08568 333.698739 
L 605.08568 333.698739 
L 594.48168 333.698739 
z
" clip-path="url(#p2db00c5072)" style="fill: #785ef0; stroke: #000000; stroke-width: 0.25; stroke-linejoin: miter"/>
   </g>
   <g id="patch_113">
    <path d="M 605.085693 333.698739 
L 615.689704 333.698739 
L 615.689704 333.698739 
L 605.085693 333.698739 
z
" clip-path="url(#p2db00c5072)" style="fill: #785ef0; stroke: #000000; stroke-width: 0.25; stroke-linejoin: miter"/>
   </g>
   <g id="patch_114">
    <path d="M 615.689692 333.698739 
L 626.293685 333.698739 
L 626.293685 333.698739 
L 615.689692 333.698739 
z
" clip-path="url(#p2db00c5072)" style="fill: #785ef0; stroke: #000000; stroke-width: 0.25; stroke-linejoin: miter"/>
   </g>
   <g id="patch_115">
    <path d="M 626.293685 333.698739 
L 636.897698 333.698739 
L 636.897698 333.698739 
L 626.293685 333.698739 
z
" clip-path="url(#p2db00c5072)" style="fill: #785ef0; stroke: #000000; stroke-width: 0.25; stroke-linejoin: miter"/>
   </g>
   <g id="patch_116">
    <path d="M 636.897698 333.698739 
L 647.501696 333.698739 
L 647.501696 333.698739 
L 636.897698 333.698739 
z
" clip-path="url(#p2db00c5072)" style="fill: #785ef0; stroke: #000000; stroke-width: 0.25; stroke-linejoin: miter"/>
   </g>
   <g id="patch_117">
    <path d="M 647.501696 333.698739 
L 658.105703 333.698739 
L 658.105703 333.698739 
L 647.501696 333.698739 
z
" clip-path="url(#p2db00c5072)" style="fill: #785ef0; stroke: #000000; stroke-width: 0.25; stroke-linejoin: miter"/>
   </g>
   <g id="patch_118">
    <path d="M 658.105712 333.698739 
L 668.709708 333.698739 
L 668.709708 333.698739 
L 658.105712 333.698739 
z
" clip-path="url(#p2db00c5072)" style="fill: #785ef0; stroke: #000000; stroke-width: 0.25; stroke-linejoin: miter"/>
   </g>
   <g id="patch_119">
    <path d="M 668.709708 333.698739 
L 679.313708 333.698739 
L 679.313708 333.698739 
L 668.709708 333.698739 
z
" clip-path="url(#p2db00c5072)" style="fill: #785ef0; stroke: #000000; stroke-width: 0.25; stroke-linejoin: miter"/>
   </g>
   <g id="patch_120">
    <path d="M 679.313716 333.698739 
L 689.917724 333.698739 
L 689.917724 333.698739 
L 679.313716 333.698739 
z
" clip-path="url(#p2db00c5072)" style="fill: #785ef0; stroke: #000000; stroke-width: 0.25; stroke-linejoin: miter"/>
   </g>
   <g id="patch_121">
    <path d="M 64.281796 333.698739 
L 74.885403 333.698739 
L 74.885403 333.698739 
L 64.281796 333.698739 
z
" clip-path="url(#p2db00c5072)" style="fill: #dc267f; stroke: #000000; stroke-width: 0.25; stroke-linejoin: miter"/>
   </g>
   <g id="patch_122">
    <path d="M 74.885403 333.698739 
L 85.489365 333.698739 
L 85.489365 333.698739 
L 74.885403 333.698739 
z
" clip-path="url(#p2db00c5072)" style="fill: #dc267f; stroke: #000000; stroke-width: 0.25; stroke-linejoin: miter"/>
   </g>
   <g id="patch_123">
    <path d="M 85.48981 333.698739 
L 96.093604 333.698739 
L 96.093604 333.698739 
L 85.48981 333.698739 
z
" clip-path="url(#p2db00c5072)" style="fill: #dc267f; stroke: #000000; stroke-width: 0.25; stroke-linejoin: miter"/>
   </g>
   <g id="patch_124">
    <path d="M 96.094018 333.698739 
L 106.697714 333.698739 
L 106.697714 333.698739 
L 96.094018 333.698739 
z
" clip-path="url(#p2db00c5072)" style="fill: #dc267f; stroke: #000000; stroke-width: 0.25; stroke-linejoin: miter"/>
   </g>
   <g id="patch_125">
    <path d="M 106.697714 333.698739 
L 117.301558 333.698739 
L 117.301558 333.608326 
L 106.697714 333.608326 
z
" clip-path="url(#p2db00c5072)" style="fill: #dc267f; stroke: #000000; stroke-width: 0.25; stroke-linejoin: miter"/>
   </g>
   <g id="patch_126">
    <path d="M 117.301558 333.698739 
L 127.905625 333.698739 
L 127.905625 333.517937 
L 117.301558 333.517937 
z
" clip-path="url(#p2db00c5072)" style="fill: #dc267f; stroke: #000000; stroke-width: 0.25; stroke-linejoin: miter"/>
   </g>
   <g id="patch_127">
    <path d="M 127.905291 333.698739 
L 138.509335 333.698739 
L 138.509335 333.425062 
L 127.905291 333.425062 
z
" clip-path="url(#p2db00c5072)" style="fill: #dc267f; stroke: #000000; stroke-width: 0.25; stroke-linejoin: miter"/>
   </g>
   <g id="patch_128">
    <path d="M 138.509957 333.698739 
L 149.113757 333.698739 
L 149.113757 333.057014 
L 138.509957 333.057014 
z
" clip-path="url(#p2db00c5072)" style="fill: #dc267f; stroke: #000000; stroke-width: 0.25; stroke-linejoin: miter"/>
   </g>
   <g id="patch_129">
    <path d="M 149.113757 333.698739 
L 159.717591 333.698739 
L 159.717591 333.116979 
L 149.113757 333.116979 
z
" clip-path="url(#p2db00c5072)" style="fill: #dc267f; stroke: #000000; stroke-width: 0.25; stroke-linejoin: miter"/>
   </g>
   <g id="patch_130">
    <path d="M 159.717322 333.698739 
L 170.321465 333.698739 
L 170.321465 333.275678 
L 159.717322 333.275678 
z
" clip-path="url(#p2db00c5072)" style="fill: #dc267f; stroke: #000000; stroke-width: 0.25; stroke-linejoin: miter"/>
   </g>
   <g id="patch_131">
    <path d="M 170.321465 333.698739 
L 180.925453 333.698739 
L 180.925453 333.171901 
L 170.321465 333.171901 
z
" clip-path="url(#p2db00c5072)" style="fill: #dc267f; stroke: #000000; stroke-width: 0.25; stroke-linejoin: miter"/>
   </g>
   <g id="patch_132">
    <path d="M 180.925453 333.698739 
L 191.529435 333.698739 
L 191.529435 332.401412 
L 180.925453 332.401412 
z
" clip-path="url(#p2db00c5072)" style="fill: #dc267f; stroke: #000000; stroke-width: 0.25; stroke-linejoin: miter"/>
   </g>
   <g id="patch_133">
    <path d="M 191.529435 333.698739 
L 202.133329 333.698739 
L 202.133329 329.827115 
L 191.529435 329.827115 
z
" clip-path="url(#p2db00c5072)" style="fill: #dc267f; stroke: #000000; stroke-width: 0.25; stroke-linejoin: miter"/>
   </g>
   <g id="patch_134">
    <path d="M 202.133733 333.698739 
L 212.737782 333.698739 
L 212.737782 320.006787 
L 202.133733 320.006787 
z
" clip-path="url(#p2db00c5072)" style="fill: #dc267f; stroke: #000000; stroke-width: 0.25; stroke-linejoin: miter"/>
   </g>
   <g id="patch_135">
    <path d="M 212.737594 333.698739 
L 223.341761 333.698739 
L 223.341761 281.337652 
L 212.737594 281.337652 
z
" clip-path="url(#p2db00c5072)" style="fill: #dc267f; stroke: #000000; stroke-width: 0.25; stroke-linejoin: miter"/>
   </g>
   <g id="patch_136">
    <path d="M 223.341412 333.698739 
L 233.945472 333.698739 
L 233.945472 197.313448 
L 223.341412 197.313448 
z
" clip-path="url(#p2db00c5072)" style="fill: #dc267f; stroke: #000000; stroke-width: 0.25; stroke-linejoin: miter"/>
   </g>
   <g id="patch_137">
    <path d="M 233.945635 333.698739 
L 244.549586 333.698739 
L 244.549586 99.677656 
L 233.945635 99.677656 
z
" clip-path="url(#p2db00c5072)" style="fill: #dc267f; stroke: #000000; stroke-width: 0.25; stroke-linejoin: miter"/>
   </g>
   <g id="patch_138">
    <path d="M 244.549434 333.698739 
L 255.153564 333.698739 
L 255.153564 121.920019 
L 244.549434 121.920019 
z
" clip-path="url(#p2db00c5072)" style="fill: #dc267f; stroke: #000000; stroke-width: 0.25; stroke-linejoin: miter"/>
   </g>
   <g id="patch_139">
    <path d="M 255.153564 333.698739 
L 265.757514 333.698739 
L 265.757514 231.763678 
L 255.153564 231.763678 
z
" clip-path="url(#p2db00c5072)" style="fill: #dc267f; stroke: #000000; stroke-width: 0.25; stroke-linejoin: miter"/>
   </g>
   <g id="patch_140">
    <path d="M 265.757645 333.698739 
L 276.361628 333.698739 
L 276.361628 308.625683 
L 265.757645 308.625683 
z
" clip-path="url(#p2db00c5072)" style="fill: #dc267f; stroke: #000000; stroke-width: 0.25; stroke-linejoin: miter"/>
   </g>
   <g id="patch_141">
    <path d="M 276.361628 333.698739 
L 286.965574 333.698739 
L 286.965574 328.432923 
L 276.361628 328.432923 
z
" clip-path="url(#p2db00c5072)" style="fill: #dc267f; stroke: #000000; stroke-width: 0.25; stroke-linejoin: miter"/>
   </g>
   <g id="patch_142">
    <path d="M 286.965574 333.698739 
L 297.569589 333.698739 
L 297.569589 331.201382 
L 286.965574 331.201382 
z
" clip-path="url(#p2db00c5072)" style="fill: #dc267f; stroke: #000000; stroke-width: 0.25; stroke-linejoin: miter"/>
   </g>
   <g id="patch_143">
    <path d="M 297.569484 333.698739 
L 308.173569 333.698739 
L 308.173569 332.666086 
L 297.569484 332.666086 
z
" clip-path="url(#p2db00c5072)" style="fill: #dc267f; stroke: #000000; stroke-width: 0.25; stroke-linejoin: miter"/>
   </g>
   <g id="patch_144">
    <path d="M 308.173569 333.698739 
L 318.777578 333.698739 
L 318.777578 333.110343 
L 308.173569 333.110343 
z
" clip-path="url(#p2db00c5072)" style="fill: #dc267f; stroke: #000000; stroke-width: 0.25; stroke-linejoin: miter"/>
   </g>
   <g id="patch_145">
    <path d="M 318.777578 333.698739 
L 329.38156 333.698739 
L 329.38156 333.605878 
L 318.777578 333.605878 
z
" clip-path="url(#p2db00c5072)" style="fill: #dc267f; stroke: #000000; stroke-width: 0.25; stroke-linejoin: miter"/>
   </g>
   <g id="patch_146">
    <path d="M 329.38156 333.698739 
L 339.985612 333.698739 
L 339.985612 333.698739 
L 329.38156 333.698739 
z
" clip-path="url(#p2db00c5072)" style="fill: #dc267f; stroke: #000000; stroke-width: 0.25; stroke-linejoin: miter"/>
   </g>
   <g id="patch_147">
    <path d="M 339.985612 333.698739 
L 350.589621 333.698739 
L 350.589621 333.608723 
L 339.985612 333.608723 
z
" clip-path="url(#p2db00c5072)" style="fill: #dc267f; stroke: #000000; stroke-width: 0.25; stroke-linejoin: miter"/>
   </g>
   <g id="patch_148">
    <path d="M 350.589621 333.698739 
L 361.193647 333.698739 
L 361.193647 333.608763 
L 350.589621 333.608763 
z
" clip-path="url(#p2db00c5072)" style="fill: #dc267f; stroke: #000000; stroke-width: 0.25; stroke-linejoin: miter"/>
   </g>
   <g id="patch_149">
    <path d="M 361.193647 333.698739 
L 371.797628 333.698739 
L 371.797628 333.698739 
L 361.193647 333.698739 
z
" clip-path="url(#p2db00c5072)" style="fill: #dc267f; stroke: #000000; stroke-width: 0.25; stroke-linejoin: miter"/>
   </g>
   <g id="patch_150">
    <path d="M 371.797628 333.698739 
L 382.401657 333.698739 
L 382.401657 333.698739 
L 371.797628 333.698739 
z
" clip-path="url(#p2db00c5072)" style="fill: #dc267f; stroke: #000000; stroke-width: 0.25; stroke-linejoin: miter"/>
   </g>
   <g id="patch_151">
    <path d="M 382.401657 333.698739 
L 393.005695 333.698739 
L 393.005695 333.698739 
L 382.401657 333.698739 
z
" clip-path="url(#p2db00c5072)" style="fill: #dc267f; stroke: #000000; stroke-width: 0.25; stroke-linejoin: miter"/>
   </g>
   <g id="patch_152">
    <path d="M 393.005639 333.698739 
L 403.609627 333.698739 
L 403.609627 333.698739 
L 393.005639 333.698739 
z
" clip-path="url(#p2db00c5072)" style="fill: #dc267f; stroke: #000000; stroke-width: 0.25; stroke-linejoin: miter"/>
   </g>
   <g id="patch_153">
    <path d="M 403.609679 333.698739 
L 414.213683 333.698739 
L 414.213683 333.698739 
L 403.609679 333.698739 
z
" clip-path="url(#p2db00c5072)" style="fill: #dc267f; stroke: #000000; stroke-width: 0.25; stroke-linejoin: miter"/>
   </g>
   <g id="patch_154">
    <path d="M 414.213635 333.698739 
L 424.817676 333.698739 
L 424.817676 333.698739 
L 414.213635 333.698739 
z
" clip-path="url(#p2db00c5072)" style="fill: #dc267f; stroke: #000000; stroke-width: 0.25; stroke-linejoin: miter"/>
   </g>
   <g id="patch_155">
    <path d="M 424.817631 333.698739 
L 435.421609 333.698739 
L 435.421609 333.698739 
L 424.817631 333.698739 
z
" clip-path="url(#p2db00c5072)" style="fill: #dc267f; stroke: #000000; stroke-width: 0.25; stroke-linejoin: miter"/>
   </g>
   <g id="patch_156">
    <path d="M 435.421609 333.698739 
L 446.025648 333.698739 
L 446.025648 333.698739 
L 435.421609 333.698739 
z
" clip-path="url(#p2db00c5072)" style="fill: #dc267f; stroke: #000000; stroke-width: 0.25; stroke-linejoin: miter"/>
   </g>
   <g id="patch_157">
    <path d="M 446.025648 333.698739 
L 456.629646 333.698739 
L 456.629646 333.698739 
L 446.025648 333.698739 
z
" clip-path="url(#p2db00c5072)" style="fill: #dc267f; stroke: #000000; stroke-width: 0.25; stroke-linejoin: miter"/>
   </g>
   <g id="patch_158">
    <path d="M 456.629682 333.698739 
L 467.23368 333.698739 
L 467.23368 333.698739 
L 456.629682 333.698739 
z
" clip-path="url(#p2db00c5072)" style="fill: #dc267f; stroke: #000000; stroke-width: 0.25; stroke-linejoin: miter"/>
   </g>
   <g id="patch_159">
    <path d="M 467.233646 333.698739 
L 477.837672 333.698739 
L 477.837672 333.698739 
L 467.233646 333.698739 
z
" clip-path="url(#p2db00c5072)" style="fill: #dc267f; stroke: #000000; stroke-width: 0.25; stroke-linejoin: miter"/>
   </g>
   <g id="patch_160">
    <path d="M 477.837641 333.698739 
L 488.441642 333.698739 
L 488.441642 333.698739 
L 477.837641 333.698739 
z
" clip-path="url(#p2db00c5072)" style="fill: #dc267f; stroke: #000000; stroke-width: 0.25; stroke-linejoin: miter"/>
   </g>
   <g id="patch_161">
    <path d="M 488.441642 333.698739 
L 499.045652 333.698739 
L 499.045652 333.698739 
L 488.441642 333.698739 
z
" clip-path="url(#p2db00c5072)" style="fill: #dc267f; stroke: #000000; stroke-width: 0.25; stroke-linejoin: miter"/>
   </g>
   <g id="patch_162">
    <path d="M 499.045625 333.698739 
L 509.649653 333.698739 
L 509.649653 333.698739 
L 499.045625 333.698739 
z
" clip-path="url(#p2db00c5072)" style="fill: #dc267f; stroke: #000000; stroke-width: 0.25; stroke-linejoin: miter"/>
   </g>
   <g id="patch_163">
    <path d="M 509.649653 333.698739 
L 520.253634 333.698739 
L 520.253634 333.698739 
L 509.649653 333.698739 
z
" clip-path="url(#p2db00c5072)" style="fill: #dc267f; stroke: #000000; stroke-width: 0.25; stroke-linejoin: miter"/>
   </g>
   <g id="patch_164">
    <path d="M 520.253657 333.698739 
L 530.857675 333.698739 
L 530.857675 333.698739 
L 520.253657 333.698739 
z
" clip-path="url(#p2db00c5072)" style="fill: #dc267f; stroke: #000000; stroke-width: 0.25; stroke-linejoin: miter"/>
   </g>
   <g id="patch_165">
    <path d="M 530.857675 333.698739 
L 541.46168 333.698739 
L 541.46168 333.698739 
L 530.857675 333.698739 
z
" clip-path="url(#p2db00c5072)" style="fill: #dc267f; stroke: #000000; stroke-width: 0.25; stroke-linejoin: miter"/>
   </g>
   <g id="patch_166">
    <path d="M 541.4617 333.698739 
L 552.065682 333.698739 
L 552.065682 333.698739 
L 541.4617 333.698739 
z
" clip-path="url(#p2db00c5072)" style="fill: #dc267f; stroke: #000000; stroke-width: 0.25; stroke-linejoin: miter"/>
   </g>
   <g id="patch_167">
    <path d="M 552.065701 333.698739 
L 562.669692 333.698739 
L 562.669692 333.698739 
L 552.065701 333.698739 
z
" clip-path="url(#p2db00c5072)" style="fill: #dc267f; stroke: #000000; stroke-width: 0.25; stroke-linejoin: miter"/>
   </g>
   <g id="patch_168">
    <path d="M 562.669657 333.698739 
L 573.273674 333.698739 
L 573.273674 333.698739 
L 562.669657 333.698739 
z
" clip-path="url(#p2db00c5072)" style="fill: #dc267f; stroke: #000000; stroke-width: 0.25; stroke-linejoin: miter"/>
   </g>
   <g id="patch_169">
    <path d="M 573.273658 333.698739 
L 583.877674 333.698739 
L 583.877674 333.698739 
L 573.273658 333.698739 
z
" clip-path="url(#p2db00c5072)" style="fill: #dc267f; stroke: #000000; stroke-width: 0.25; stroke-linejoin: miter"/>
   </g>
   <g id="patch_170">
    <path d="M 583.877674 333.698739 
L 594.48168 333.698739 
L 594.48168 333.698739 
L 583.877674 333.698739 
z
" clip-path="url(#p2db00c5072)" style="fill: #dc267f; stroke: #000000; stroke-width: 0.25; stroke-linejoin: miter"/>
   </g>
   <g id="patch_171">
    <path d="M 594.48168 333.698739 
L 605.08568 333.698739 
L 605.08568 333.698739 
L 594.48168 333.698739 
z
" clip-path="url(#p2db00c5072)" style="fill: #dc267f; stroke: #000000; stroke-width: 0.25; stroke-linejoin: miter"/>
   </g>
   <g id="patch_172">
    <path d="M 605.085693 333.698739 
L 615.689704 333.698739 
L 615.689704 333.698739 
L 605.085693 333.698739 
z
" clip-path="url(#p2db00c5072)" style="fill: #dc267f; stroke: #000000; stroke-width: 0.25; stroke-linejoin: miter"/>
   </g>
   <g id="patch_173">
    <path d="M 615.689692 333.698739 
L 626.293685 333.698739 
L 626.293685 333.698739 
L 615.689692 333.698739 
z
" clip-path="url(#p2db00c5072)" style="fill: #dc267f; stroke: #000000; stroke-width: 0.25; stroke-linejoin: miter"/>
   </g>
   <g id="patch_174">
    <path d="M 626.293685 333.698739 
L 636.897698 333.698739 
L 636.897698 333.698739 
L 626.293685 333.698739 
z
" clip-path="url(#p2db00c5072)" style="fill: #dc267f; stroke: #000000; stroke-width: 0.25; stroke-linejoin: miter"/>
   </g>
   <g id="patch_175">
    <path d="M 636.897698 333.698739 
L 647.501696 333.698739 
L 647.501696 333.698739 
L 636.897698 333.698739 
z
" clip-path="url(#p2db00c5072)" style="fill: #dc267f; stroke: #000000; stroke-width: 0.25; stroke-linejoin: miter"/>
   </g>
   <g id="patch_176">
    <path d="M 647.501696 333.698739 
L 658.105703 333.698739 
L 658.105703 333.698739 
L 647.501696 333.698739 
z
" clip-path="url(#p2db00c5072)" style="fill: #dc267f; stroke: #000000; stroke-width: 0.25; stroke-linejoin: miter"/>
   </g>
   <g id="patch_177">
    <path d="M 658.105712 333.698739 
L 668.709708 333.698739 
L 668.709708 333.698739 
L 658.105712 333.698739 
z
" clip-path="url(#p2db00c5072)" style="fill: #dc267f; stroke: #000000; stroke-width: 0.25; stroke-linejoin: miter"/>
   </g>
   <g id="patch_178">
    <path d="M 668.709708 333.698739 
L 679.313708 333.698739 
L 679.313708 333.698739 
L 668.709708 333.698739 
z
" clip-path="url(#p2db00c5072)" style="fill: #dc267f; stroke: #000000; stroke-width: 0.25; stroke-linejoin: miter"/>
   </g>
   <g id="patch_179">
    <path d="M 679.313716 333.698739 
L 689.917724 333.698739 
L 689.917724 333.698739 
L 679.313716 333.698739 
z
" clip-path="url(#p2db00c5072)" style="fill: #dc267f; stroke: #000000; stroke-width: 0.25; stroke-linejoin: miter"/>
   </g>
   <g id="patch_180">
    <path d="M 64.281796 333.698739 
L 74.885403 333.698739 
L 74.885403 333.698739 
L 64.281796 333.698739 
z
" clip-path="url(#p2db00c5072)" style="fill: #fe6100; stroke: #000000; stroke-width: 0.25; stroke-linejoin: miter"/>
   </g>
   <g id="patch_181">
    <path d="M 74.885403 333.698739 
L 85.489365 333.698739 
L 85.489365 333.698739 
L 74.885403 333.698739 
z
" clip-path="url(#p2db00c5072)" style="fill: #fe6100; stroke: #000000; stroke-width: 0.25; stroke-linejoin: miter"/>
   </g>
   <g id="patch_182">
    <path d="M 85.48981 333.698739 
L 96.093604 333.698739 
L 96.093604 333.679025 
L 85.48981 333.679025 
z
" clip-path="url(#p2db00c5072)" style="fill: #fe6100; stroke: #000000; stroke-width: 0.25; stroke-linejoin: miter"/>
   </g>
   <g id="patch_183">
    <path d="M 96.094018 333.698739 
L 106.697714 333.698739 
L 106.697714 333.535808 
L 96.094018 333.535808 
z
" clip-path="url(#p2db00c5072)" style="fill: #fe6100; stroke: #000000; stroke-width: 0.25; stroke-linejoin: miter"/>
   </g>
   <g id="patch_184">
    <path d="M 106.697714 333.698739 
L 117.301558 333.698739 
L 117.301558 333.698739 
L 106.697714 333.698739 
z
" clip-path="url(#p2db00c5072)" style="fill: #fe6100; stroke: #000000; stroke-width: 0.25; stroke-linejoin: miter"/>
   </g>
   <g id="patch_185">
    <path d="M 117.301558 333.698739 
L 127.905625 333.698739 
L 127.905625 333.698739 
L 117.301558 333.698739 
z
" clip-path="url(#p2db00c5072)" style="fill: #fe6100; stroke: #000000; stroke-width: 0.25; stroke-linejoin: miter"/>
   </g>
   <g id="patch_186">
    <path d="M 127.905291 333.698739 
L 138.509335 333.698739 
L 138.509335 333.145924 
L 127.905291 333.145924 
z
" clip-path="url(#p2db00c5072)" style="fill: #fe6100; stroke: #000000; stroke-width: 0.25; stroke-linejoin: miter"/>
   </g>
   <g id="patch_187">
    <path d="M 138.509957 333.698739 
L 149.113757 333.698739 
L 149.113757 331.670331 
L 138.509957 331.670331 
z
" clip-path="url(#p2db00c5072)" style="fill: #fe6100; stroke: #000000; stroke-width: 0.25; stroke-linejoin: miter"/>
   </g>
   <g id="patch_188">
    <path d="M 149.113757 333.698739 
L 159.717591 333.698739 
L 159.717591 325.720618 
L 149.113757 325.720618 
z
" clip-path="url(#p2db00c5072)" style="fill: #fe6100; stroke: #000000; stroke-width: 0.25; stroke-linejoin: miter"/>
   </g>
   <g id="patch_189">
    <path d="M 159.717322 333.698739 
L 170.321465 333.698739 
L 170.321465 309.219277 
L 159.717322 309.219277 
z
" clip-path="url(#p2db00c5072)" style="fill: #fe6100; stroke: #000000; stroke-width: 0.25; stroke-linejoin: miter"/>
   </g>
   <g id="patch_190">
    <path d="M 170.321465 333.698739 
L 180.925453 333.698739 
L 180.925453 273.299125 
L 170.321465 273.299125 
z
" clip-path="url(#p2db00c5072)" style="fill: #fe6100; stroke: #000000; stroke-width: 0.25; stroke-linejoin: miter"/>
   </g>
   <g id="patch_191">
    <path d="M 180.925453 333.698739 
L 191.529435 333.698739 
L 191.529435 177.437013 
L 180.925453 177.437013 
z
" clip-path="url(#p2db00c5072)" style="fill: #fe6100; stroke: #000000; stroke-width: 0.25; stroke-linejoin: miter"/>
   </g>
   <g id="patch_192">
    <path d="M 191.529435 333.698739 
L 202.133329 333.698739 
L 202.133329 74.489974 
L 191.529435 74.489974 
z
" clip-path="url(#p2db00c5072)" style="fill: #fe6100; stroke: #000000; stroke-width: 0.25; stroke-linejoin: miter"/>
   </g>
   <g id="patch_193">
    <path d="M 202.133733 333.698739 
L 212.737782 333.698739 
L 212.737782 51.70129 
L 202.133733 51.70129 
z
" clip-path="url(#p2db00c5072)" style="fill: #fe6100; stroke: #000000; stroke-width: 0.25; stroke-linejoin: miter"/>
   </g>
   <g id="patch_194">
    <path d="M 212.737594 333.698739 
L 223.341761 333.698739 
L 223.341761 138.804176 
L 212.737594 138.804176 
z
" clip-path="url(#p2db00c5072)" style="fill: #fe6100; stroke: #000000; stroke-width: 0.25; stroke-linejoin: miter"/>
   </g>
   <g id="patch_195">
    <path d="M 223.341412 333.698739 
L 233.945472 333.698739 
L 233.945472 249.974638 
L 223.341412 249.974638 
z
" clip-path="url(#p2db00c5072)" style="fill: #fe6100; stroke: #000000; stroke-width: 0.25; stroke-linejoin: miter"/>
   </g>
   <g id="patch_196">
    <path d="M 233.945635 333.698739 
L 244.549586 333.698739 
L 244.549586 307.937494 
L 233.945635 307.937494 
z
" clip-path="url(#p2db00c5072)" style="fill: #fe6100; stroke: #000000; stroke-width: 0.25; stroke-linejoin: miter"/>
   </g>
   <g id="patch_197">
    <path d="M 244.549434 333.698739 
L 255.153564 333.698739 
L 255.153564 327.294481 
L 244.549434 327.294481 
z
" clip-path="url(#p2db00c5072)" style="fill: #fe6100; stroke: #000000; stroke-width: 0.25; stroke-linejoin: miter"/>
   </g>
   <g id="patch_198">
    <path d="M 255.153564 333.698739 
L 265.757514 333.698739 
L 265.757514 330.944122 
L 255.153564 330.944122 
z
" clip-path="url(#p2db00c5072)" style="fill: #fe6100; stroke: #000000; stroke-width: 0.25; stroke-linejoin: miter"/>
   </g>
   <g id="patch_199">
    <path d="M 265.757645 333.698739 
L 276.361628 333.698739 
L 276.361628 332.848301 
L 265.757645 332.848301 
z
" clip-path="url(#p2db00c5072)" style="fill: #fe6100; stroke: #000000; stroke-width: 0.25; stroke-linejoin: miter"/>
   </g>
   <g id="patch_200">
    <path d="M 276.361628 333.698739 
L 286.965574 333.698739 
L 286.965574 333.583059 
L 276.361628 333.583059 
z
" clip-path="url(#p2db00c5072)" style="fill: #fe6100; stroke: #000000; stroke-width: 0.25; stroke-linejoin: miter"/>
   </g>
   <g id="patch_201">
    <path d="M 286.965574 333.698739 
L 297.569589 333.698739 
L 297.569589 333.607678 
L 286.965574 333.607678 
z
" clip-path="url(#p2db00c5072)" style="fill: #fe6100; stroke: #000000; stroke-width: 0.25; stroke-linejoin: miter"/>
   </g>
   <g id="patch_202">
    <path d="M 297.569484 333.698739 
L 308.173569 333.698739 
L 308.173569 333.698739 
L 297.569484 333.698739 
z
" clip-path="url(#p2db00c5072)" style="fill: #fe6100; stroke: #000000; stroke-width: 0.25; stroke-linejoin: miter"/>
   </g>
   <g id="patch_203">
    <path d="M 308.173569 333.698739 
L 318.777578 333.698739 
L 318.777578 333.698739 
L 308.173569 333.698739 
z
" clip-path="url(#p2db00c5072)" style="fill: #fe6100; stroke: #000000; stroke-width: 0.25; stroke-linejoin: miter"/>
   </g>
   <g id="patch_204">
    <path d="M 318.777578 333.698739 
L 329.38156 333.698739 
L 329.38156 333.516788 
L 318.777578 333.516788 
z
" clip-path="url(#p2db00c5072)" style="fill: #fe6100; stroke: #000000; stroke-width: 0.25; stroke-linejoin: miter"/>
   </g>
   <g id="patch_205">
    <path d="M 329.38156 333.698739 
L 339.985612 333.698739 
L 339.985612 333.634177 
L 329.38156 333.634177 
z
" clip-path="url(#p2db00c5072)" style="fill: #fe6100; stroke: #000000; stroke-width: 0.25; stroke-linejoin: miter"/>
   </g>
   <g id="patch_206">
    <path d="M 339.985612 333.698739 
L 350.589621 333.698739 
L 350.589621 333.672373 
L 339.985612 333.672373 
z
" clip-path="url(#p2db00c5072)" style="fill: #fe6100; stroke: #000000; stroke-width: 0.25; stroke-linejoin: miter"/>
   </g>
   <g id="patch_207">
    <path d="M 350.589621 333.698739 
L 361.193647 333.698739 
L 361.193647 333.698739 
L 350.589621 333.698739 
z
" clip-path="url(#p2db00c5072)" style="fill: #fe6100; stroke: #000000; stroke-width: 0.25; stroke-linejoin: miter"/>
   </g>
   <g id="patch_208">
    <path d="M 361.193647 333.698739 
L 371.797628 333.698739 
L 371.797628 333.698739 
L 361.193647 333.698739 
z
" clip-path="url(#p2db00c5072)" style="fill: #fe6100; stroke: #000000; stroke-width: 0.25; stroke-linejoin: miter"/>
   </g>
   <g id="patch_209">
    <path d="M 371.797628 333.698739 
L 382.401657 333.698739 
L 382.401657 333.698739 
L 371.797628 333.698739 
z
" clip-path="url(#p2db00c5072)" style="fill: #fe6100; stroke: #000000; stroke-width: 0.25; stroke-linejoin: miter"/>
   </g>
   <g id="patch_210">
    <path d="M 382.401657 333.698739 
L 393.005695 333.698739 
L 393.005695 333.698739 
L 382.401657 333.698739 
z
" clip-path="url(#p2db00c5072)" style="fill: #fe6100; stroke: #000000; stroke-width: 0.25; stroke-linejoin: miter"/>
   </g>
   <g id="patch_211">
    <path d="M 393.005639 333.698739 
L 403.609627 333.698739 
L 403.609627 333.698739 
L 393.005639 333.698739 
z
" clip-path="url(#p2db00c5072)" style="fill: #fe6100; stroke: #000000; stroke-width: 0.25; stroke-linejoin: miter"/>
   </g>
   <g id="patch_212">
    <path d="M 403.609679 333.698739 
L 414.213683 333.698739 
L 414.213683 333.698739 
L 403.609679 333.698739 
z
" clip-path="url(#p2db00c5072)" style="fill: #fe6100; stroke: #000000; stroke-width: 0.25; stroke-linejoin: miter"/>
   </g>
   <g id="patch_213">
    <path d="M 414.213635 333.698739 
L 424.817676 333.698739 
L 424.817676 333.698739 
L 414.213635 333.698739 
z
" clip-path="url(#p2db00c5072)" style="fill: #fe6100; stroke: #000000; stroke-width: 0.25; stroke-linejoin: miter"/>
   </g>
   <g id="patch_214">
    <path d="M 424.817631 333.698739 
L 435.421609 333.698739 
L 435.421609 333.698739 
L 424.817631 333.698739 
z
" clip-path="url(#p2db00c5072)" style="fill: #fe6100; stroke: #000000; stroke-width: 0.25; stroke-linejoin: miter"/>
   </g>
   <g id="patch_215">
    <path d="M 435.421609 333.698739 
L 446.025648 333.698739 
L 446.025648 333.698739 
L 435.421609 333.698739 
z
" clip-path="url(#p2db00c5072)" style="fill: #fe6100; stroke: #000000; stroke-width: 0.25; stroke-linejoin: miter"/>
   </g>
   <g id="patch_216">
    <path d="M 446.025648 333.698739 
L 456.629646 333.698739 
L 456.629646 333.698739 
L 446.025648 333.698739 
z
" clip-path="url(#p2db00c5072)" style="fill: #fe6100; stroke: #000000; stroke-width: 0.25; stroke-linejoin: miter"/>
   </g>
   <g id="patch_217">
    <path d="M 456.629682 333.698739 
L 467.23368 333.698739 
L 467.23368 333.698739 
L 456.629682 333.698739 
z
" clip-path="url(#p2db00c5072)" style="fill: #fe6100; stroke: #000000; stroke-width: 0.25; stroke-linejoin: miter"/>
   </g>
   <g id="patch_218">
    <path d="M 467.233646 333.698739 
L 477.837672 333.698739 
L 477.837672 333.698739 
L 467.233646 333.698739 
z
" clip-path="url(#p2db00c5072)" style="fill: #fe6100; stroke: #000000; stroke-width: 0.25; stroke-linejoin: miter"/>
   </g>
   <g id="patch_219">
    <path d="M 477.837641 333.698739 
L 488.441642 333.698739 
L 488.441642 333.698739 
L 477.837641 333.698739 
z
" clip-path="url(#p2db00c5072)" style="fill: #fe6100; stroke: #000000; stroke-width: 0.25; stroke-linejoin: miter"/>
   </g>
   <g id="patch_220">
    <path d="M 488.441642 333.698739 
L 499.045652 333.698739 
L 499.045652 333.698739 
L 488.441642 333.698739 
z
" clip-path="url(#p2db00c5072)" style="fill: #fe6100; stroke: #000000; stroke-width: 0.25; stroke-linejoin: miter"/>
   </g>
   <g id="patch_221">
    <path d="M 499.045625 333.698739 
L 509.649653 333.698739 
L 509.649653 333.698739 
L 499.045625 333.698739 
z
" clip-path="url(#p2db00c5072)" style="fill: #fe6100; stroke: #000000; stroke-width: 0.25; stroke-linejoin: miter"/>
   </g>
   <g id="patch_222">
    <path d="M 509.649653 333.698739 
L 520.253634 333.698739 
L 520.253634 333.698739 
L 509.649653 333.698739 
z
" clip-path="url(#p2db00c5072)" style="fill: #fe6100; stroke: #000000; stroke-width: 0.25; stroke-linejoin: miter"/>
   </g>
   <g id="patch_223">
    <path d="M 520.253657 333.698739 
L 530.857675 333.698739 
L 530.857675 333.698739 
L 520.253657 333.698739 
z
" clip-path="url(#p2db00c5072)" style="fill: #fe6100; stroke: #000000; stroke-width: 0.25; stroke-linejoin: miter"/>
   </g>
   <g id="patch_224">
    <path d="M 530.857675 333.698739 
L 541.46168 333.698739 
L 541.46168 333.698739 
L 530.857675 333.698739 
z
" clip-path="url(#p2db00c5072)" style="fill: #fe6100; stroke: #000000; stroke-width: 0.25; stroke-linejoin: miter"/>
   </g>
   <g id="patch_225">
    <path d="M 541.4617 333.698739 
L 552.065682 333.698739 
L 552.065682 333.698739 
L 541.4617 333.698739 
z
" clip-path="url(#p2db00c5072)" style="fill: #fe6100; stroke: #000000; stroke-width: 0.25; stroke-linejoin: miter"/>
   </g>
   <g id="patch_226">
    <path d="M 552.065701 333.698739 
L 562.669692 333.698739 
L 562.669692 333.698739 
L 552.065701 333.698739 
z
" clip-path="url(#p2db00c5072)" style="fill: #fe6100; stroke: #000000; stroke-width: 0.25; stroke-linejoin: miter"/>
   </g>
   <g id="patch_227">
    <path d="M 562.669657 333.698739 
L 573.273674 333.698739 
L 573.273674 333.698739 
L 562.669657 333.698739 
z
" clip-path="url(#p2db00c5072)" style="fill: #fe6100; stroke: #000000; stroke-width: 0.25; stroke-linejoin: miter"/>
   </g>
   <g id="patch_228">
    <path d="M 573.273658 333.698739 
L 583.877674 333.698739 
L 583.877674 333.698739 
L 573.273658 333.698739 
z
" clip-path="url(#p2db00c5072)" style="fill: #fe6100; stroke: #000000; stroke-width: 0.25; stroke-linejoin: miter"/>
   </g>
   <g id="patch_229">
    <path d="M 583.877674 333.698739 
L 594.48168 333.698739 
L 594.48168 333.698739 
L 583.877674 333.698739 
z
" clip-path="url(#p2db00c5072)" style="fill: #fe6100; stroke: #000000; stroke-width: 0.25; stroke-linejoin: miter"/>
   </g>
   <g id="patch_230">
    <path d="M 594.48168 333.698739 
L 605.08568 333.698739 
L 605.08568 333.698739 
L 594.48168 333.698739 
z
" clip-path="url(#p2db00c5072)" style="fill: #fe6100; stroke: #000000; stroke-width: 0.25; stroke-linejoin: miter"/>
   </g>
   <g id="patch_231">
    <path d="M 605.085693 333.698739 
L 615.689704 333.698739 
L 615.689704 333.698739 
L 605.085693 333.698739 
z
" clip-path="url(#p2db00c5072)" style="fill: #fe6100; stroke: #000000; stroke-width: 0.25; stroke-linejoin: miter"/>
   </g>
   <g id="patch_232">
    <path d="M 615.689692 333.698739 
L 626.293685 333.698739 
L 626.293685 333.698739 
L 615.689692 333.698739 
z
" clip-path="url(#p2db00c5072)" style="fill: #fe6100; stroke: #000000; stroke-width: 0.25; stroke-linejoin: miter"/>
   </g>
   <g id="patch_233">
    <path d="M 626.293685 333.698739 
L 636.897698 333.698739 
L 636.897698 333.698739 
L 626.293685 333.698739 
z
" clip-path="url(#p2db00c5072)" style="fill: #fe6100; stroke: #000000; stroke-width: 0.25; stroke-linejoin: miter"/>
   </g>
   <g id="patch_234">
    <path d="M 636.897698 333.698739 
L 647.501696 333.698739 
L 647.501696 333.698739 
L 636.897698 333.698739 
z
" clip-path="url(#p2db00c5072)" style="fill: #fe6100; stroke: #000000; stroke-width: 0.25; stroke-linejoin: miter"/>
   </g>
   <g id="patch_235">
    <path d="M 647.501696 333.698739 
L 658.105703 333.698739 
L 658.105703 333.698739 
L 647.501696 333.698739 
z
" clip-path="url(#p2db00c5072)" style="fill: #fe6100; stroke: #000000; stroke-width: 0.25; stroke-linejoin: miter"/>
   </g>
   <g id="patch_236">
    <path d="M 658.105712 333.698739 
L 668.709708 333.698739 
L 668.709708 333.698739 
L 658.105712 333.698739 
z
" clip-path="url(#p2db00c5072)" style="fill: #fe6100; stroke: #000000; stroke-width: 0.25; stroke-linejoin: miter"/>
   </g>
   <g id="patch_237">
    <path d="M 668.709708 333.698739 
L 679.313708 333.698739 
L 679.313708 333.698739 
L 668.709708 333.698739 
z
" clip-path="url(#p2db00c5072)" style="fill: #fe6100; stroke: #000000; stroke-width: 0.25; stroke-linejoin: miter"/>
   </g>
   <g id="patch_238">
    <path d="M 679.313716 333.698739 
L 689.917724 333.698739 
L 689.917724 333.698739 
L 679.313716 333.698739 
z
" clip-path="url(#p2db00c5072)" style="fill: #fe6100; stroke: #000000; stroke-width: 0.25; stroke-linejoin: miter"/>
   </g>
   <g id="matplotlib.axis_1">
    <g id="xtick_1">
     <g id="line2d_1">
      <path d="M 113.409466 333.698739 
L 113.409466 37.601417 
" clip-path="url(#p2db00c5072)" style="fill: none; stroke: #b0b0b0; stroke-opacity: 0.5; stroke-width: 0.5; stroke-linecap: square"/>
     </g>
     <g id="line2d_2">
      <defs>
       <path id="m82d53e8bb0" d="M 0 0 
L 0 -3.5 
" style="stroke: #000000; stroke-width: 0.8"/>
      </defs>
      <g>
       <use xlink:href="#m82d53e8bb0" x="113.409466" y="333.698739" style="stroke: #000000; stroke-width: 0.8"/>
      </g>
     </g>
     <g id="text_1">
      <!-- 200 nm -->
      <g transform="translate(94.237591 344.796395) scale(0.1 -0.1)">
       <defs>
        <path id="DejaVuSans-15" d="M 1228 531 
L 3431 531 
L 3431 0 
L 469 0 
L 469 531 
Q 828 903 1448 1529 
Q 2069 2156 2228 2338 
Q 2531 2678 2651 2914 
Q 2772 3150 2772 3378 
Q 2772 3750 2511 3984 
Q 2250 4219 1831 4219 
Q 1534 4219 1204 4116 
Q 875 4013 500 3803 
L 500 4441 
Q 881 4594 1212 4672 
Q 1544 4750 1819 4750 
Q 2544 4750 2975 4387 
Q 3406 4025 3406 3419 
Q 3406 3131 3298 2873 
Q 3191 2616 2906 2266 
Q 2828 2175 2409 1742 
Q 1991 1309 1228 531 
z
" transform="scale(0.015625)"/>
        <path id="DejaVuSans-13" d="M 2034 4250 
Q 1547 4250 1301 3770 
Q 1056 3291 1056 2328 
Q 1056 1369 1301 889 
Q 1547 409 2034 409 
Q 2525 409 2770 889 
Q 3016 1369 3016 2328 
Q 3016 3291 2770 3770 
Q 2525 4250 2034 4250 
z
M 2034 4750 
Q 2819 4750 3233 4129 
Q 3647 3509 3647 2328 
Q 3647 1150 3233 529 
Q 2819 -91 2034 -91 
Q 1250 -91 836 529 
Q 422 1150 422 2328 
Q 422 3509 836 4129 
Q 1250 4750 2034 4750 
z
" transform="scale(0.015625)"/>
        <path id="DejaVuSans-3" transform="scale(0.015625)"/>
        <path id="DejaVuSans-51" d="M 3513 2113 
L 3513 0 
L 2938 0 
L 2938 2094 
Q 2938 2591 2744 2837 
Q 2550 3084 2163 3084 
Q 1697 3084 1428 2787 
Q 1159 2491 1159 1978 
L 1159 0 
L 581 0 
L 581 3500 
L 1159 3500 
L 1159 2956 
Q 1366 3272 1645 3428 
Q 1925 3584 2291 3584 
Q 2894 3584 3203 3211 
Q 3513 2838 3513 2113 
z
" transform="scale(0.015625)"/>
        <path id="DejaVuSans-50" d="M 3328 2828 
Q 3544 3216 3844 3400 
Q 4144 3584 4550 3584 
Q 5097 3584 5394 3201 
Q 5691 2819 5691 2113 
L 5691 0 
L 5113 0 
L 5113 2094 
Q 5113 2597 4934 2840 
Q 4756 3084 4391 3084 
Q 3944 3084 3684 2787 
Q 3425 2491 3425 1978 
L 3425 0 
L 2847 0 
L 2847 2094 
Q 2847 2600 2669 2842 
Q 2491 3084 2119 3084 
Q 1678 3084 1418 2786 
Q 1159 2488 1159 1978 
L 1159 0 
L 581 0 
L 581 3500 
L 1159 3500 
L 1159 2956 
Q 1356 3278 1631 3431 
Q 1906 3584 2284 3584 
Q 2666 3584 2933 3390 
Q 3200 3197 3328 2828 
z
" transform="scale(0.015625)"/>
       </defs>
       <use xlink:href="#DejaVuSans-15"/>
       <use xlink:href="#DejaVuSans-13" transform="translate(63.625 0)"/>
       <use xlink:href="#DejaVuSans-13" transform="translate(127.25 0)"/>
       <use xlink:href="#DejaVuSans-3" transform="translate(190.875 0)"/>
       <use xlink:href="#DejaVuSans-51" transform="translate(222.65625 0)"/>
       <use xlink:href="#DejaVuSans-50" transform="translate(286.03125 0)"/>
      </g>
     </g>
    </g>
    <g id="xtick_2">
     <g id="line2d_3">
      <path d="M 248.441688 333.698739 
L 248.441688 37.601417 
" clip-path="url(#p2db00c5072)" style="fill: none; stroke: #b0b0b0; stroke-opacity: 0.5; stroke-width: 0.5; stroke-linecap: square"/>
     </g>
     <g id="line2d_4">
      <g>
       <use xlink:href="#m82d53e8bb0" x="248.441688" y="333.698739" style="stroke: #000000; stroke-width: 0.8"/>
      </g>
     </g>
     <g id="text_2">
      <!-- 500 nm -->
      <g transform="translate(229.269813 344.796395) scale(0.1 -0.1)">
       <defs>
        <path id="DejaVuSans-18" d="M 691 4666 
L 3169 4666 
L 3169 4134 
L 1269 4134 
L 1269 2991 
Q 1406 3038 1543 3061 
Q 1681 3084 1819 3084 
Q 2600 3084 3056 2656 
Q 3513 2228 3513 1497 
Q 3513 744 3044 326 
Q 2575 -91 1722 -91 
Q 1428 -91 1123 -41 
Q 819 9 494 109 
L 494 744 
Q 775 591 1075 516 
Q 1375 441 1709 441 
Q 2250 441 2565 725 
Q 2881 1009 2881 1497 
Q 2881 1984 2565 2268 
Q 2250 2553 1709 2553 
Q 1456 2553 1204 2497 
Q 953 2441 691 2322 
L 691 4666 
z
" transform="scale(0.015625)"/>
       </defs>
       <use xlink:href="#DejaVuSans-18"/>
       <use xlink:href="#DejaVuSans-13" transform="translate(63.625 0)"/>
       <use xlink:href="#DejaVuSans-13" transform="translate(127.25 0)"/>
       <use xlink:href="#DejaVuSans-3" transform="translate(190.875 0)"/>
       <use xlink:href="#DejaVuSans-51" transform="translate(222.65625 0)"/>
       <use xlink:href="#DejaVuSans-50" transform="translate(286.03125 0)"/>
      </g>
     </g>
    </g>
    <g id="xtick_3">
     <g id="line2d_5">
      <path d="M 350.589621 333.698739 
L 350.589621 37.601417 
" clip-path="url(#p2db00c5072)" style="fill: none; stroke: #b0b0b0; stroke-opacity: 0.5; stroke-width: 0.5; stroke-linecap: square"/>
     </g>
     <g id="line2d_6">
      <g>
       <use xlink:href="#m82d53e8bb0" x="350.589621" y="333.698739" style="stroke: #000000; stroke-width: 0.8"/>
      </g>
     </g>
     <g id="text_3">
      <!-- 1 µm -->
      <g transform="translate(337.767746 344.796395) scale(0.1 -0.1)">
       <defs>
        <path id="DejaVuSans-14" d="M 794 531 
L 1825 531 
L 1825 4091 
L 703 3866 
L 703 4441 
L 1819 4666 
L 2450 4666 
L 2450 531 
L 3481 531 
L 3481 0 
L 794 0 
L 794 531 
z
" transform="scale(0.015625)"/>
        <path id="DejaVuSans-77" d="M 544 -1331 
L 544 3500 
L 1119 3500 
L 1119 1325 
Q 1119 872 1334 640 
Q 1550 409 1972 409 
Q 2434 409 2667 671 
Q 2900 934 2900 1459 
L 2900 3500 
L 3475 3500 
L 3475 806 
Q 3475 619 3529 530 
Q 3584 441 3700 441 
Q 3728 441 3778 458 
Q 3828 475 3916 513 
L 3916 50 
Q 3788 -22 3673 -56 
Q 3559 -91 3450 -91 
Q 3234 -91 3106 31 
Q 2978 153 2931 403 
Q 2775 156 2548 32 
Q 2322 -91 2016 -91 
Q 1697 -91 1473 31 
Q 1250 153 1119 397 
L 1119 -1331 
L 544 -1331 
z
" transform="scale(0.015625)"/>
       </defs>
       <use xlink:href="#DejaVuSans-14"/>
       <use xlink:href="#DejaVuSans-3" transform="translate(63.625 0)"/>
       <use xlink:href="#DejaVuSans-77" transform="translate(95.40625 0)"/>
       <use xlink:href="#DejaVuSans-50" transform="translate(159.03125 0)"/>
      </g>
     </g>
    </g>
    <g id="xtick_4">
     <g id="line2d_7">
      <path d="M 452.737554 333.698739 
L 452.737554 37.601417 
" clip-path="url(#p2db00c5072)" style="fill: none; stroke: #b0b0b0; stroke-opacity: 0.5; stroke-width: 0.5; stroke-linecap: square"/>
     </g>
     <g id="line2d_8">
      <g>
       <use xlink:href="#m82d53e8bb0" x="452.737554" y="333.698739" style="stroke: #000000; stroke-width: 0.8"/>
      </g>
     </g>
     <g id="text_4">
      <!-- 2 µm -->
      <g transform="translate(439.915679 344.796395) scale(0.1 -0.1)">
       <use xlink:href="#DejaVuSans-15"/>
       <use xlink:href="#DejaVuSans-3" transform="translate(63.625 0)"/>
       <use xlink:href="#DejaVuSans-77" transform="translate(95.40625 0)"/>
       <use xlink:href="#DejaVuSans-50" transform="translate(159.03125 0)"/>
      </g>
     </g>
    </g>
    <g id="xtick_5">
     <g id="line2d_9">
      <path d="M 587.769776 333.698739 
L 587.769776 37.601417 
" clip-path="url(#p2db00c5072)" style="fill: none; stroke: #b0b0b0; stroke-opacity: 0.5; stroke-width: 0.5; stroke-linecap: square"/>
     </g>
     <g id="line2d_10">
      <g>
       <use xlink:href="#m82d53e8bb0" x="587.769776" y="333.698739" style="stroke: #000000; stroke-width: 0.8"/>
      </g>
     </g>
     <g id="text_5">
      <!-- 5 µm -->
      <g transform="translate(574.947901 344.796395) scale(0.1 -0.1)">
       <use xlink:href="#DejaVuSans-18"/>
       <use xlink:href="#DejaVuSans-3" transform="translate(63.625 0)"/>
       <use xlink:href="#DejaVuSans-77" transform="translate(95.40625 0)"/>
       <use xlink:href="#DejaVuSans-50" transform="translate(159.03125 0)"/>
      </g>
     </g>
    </g>
    <g id="xtick_6">
     <g id="line2d_11">
      <path d="M 689.917709 333.698739 
L 689.917709 37.601417 
" clip-path="url(#p2db00c5072)" style="fill: none; stroke: #b0b0b0; stroke-opacity: 0.5; stroke-width: 0.5; stroke-linecap: square"/>
     </g>
     <g id="line2d_12">
      <g>
       <use xlink:href="#m82d53e8bb0" x="689.917709" y="333.698739" style="stroke: #000000; stroke-width: 0.8"/>
      </g>
     </g>
     <g id="text_6">
      <!-- 10 µm -->
      <g transform="translate(673.914584 344.796395) scale(0.1 -0.1)">
       <use xlink:href="#DejaVuSans-14"/>
       <use xlink:href="#DejaVuSans-13" transform="translate(63.625 0)"/>
       <use xlink:href="#DejaVuSans-3" transform="translate(127.25 0)"/>
       <use xlink:href="#DejaVuSans-77" transform="translate(159.03125 0)"/>
       <use xlink:href="#DejaVuSans-50" transform="translate(222.65625 0)"/>
      </g>
     </g>
    </g>
    <g id="xtick_7">
     <g id="line2d_13">
      <defs>
       <path id="m8a1b9de821" d="M 0 0 
L 0 -2 
" style="stroke: #000000; stroke-width: 0.6"/>
      </defs>
      <g>
       <use xlink:href="#m8a1b9de821" x="173.162176" y="333.698739" style="stroke: #000000; stroke-width: 0.6"/>
      </g>
     </g>
    </g>
    <g id="xtick_8">
     <g id="line2d_14">
      <g>
       <use xlink:href="#m8a1b9de821" x="215.557398" y="333.698739" style="stroke: #000000; stroke-width: 0.6"/>
      </g>
     </g>
    </g>
    <g id="xtick_9">
     <g id="line2d_15">
      <g>
       <use xlink:href="#m8a1b9de821" x="275.310109" y="333.698739" style="stroke: #000000; stroke-width: 0.6"/>
      </g>
     </g>
    </g>
    <g id="xtick_10">
     <g id="line2d_16">
      <g>
       <use xlink:href="#m8a1b9de821" x="298.027035" y="333.698739" style="stroke: #000000; stroke-width: 0.6"/>
      </g>
     </g>
    </g>
    <g id="xtick_11">
     <g id="line2d_17">
      <g>
       <use xlink:href="#m8a1b9de821" x="317.705331" y="333.698739" style="stroke: #000000; stroke-width: 0.6"/>
      </g>
     </g>
    </g>
    <g id="xtick_12">
     <g id="line2d_18">
      <g>
       <use xlink:href="#m8a1b9de821" x="335.062819" y="333.698739" style="stroke: #000000; stroke-width: 0.6"/>
      </g>
     </g>
    </g>
    <g id="xtick_13">
     <g id="line2d_19">
      <g>
       <use xlink:href="#m8a1b9de821" x="512.490264" y="333.698739" style="stroke: #000000; stroke-width: 0.6"/>
      </g>
     </g>
    </g>
    <g id="xtick_14">
     <g id="line2d_20">
      <g>
       <use xlink:href="#m8a1b9de821" x="554.885487" y="333.698739" style="stroke: #000000; stroke-width: 0.6"/>
      </g>
     </g>
    </g>
    <g id="xtick_15">
     <g id="line2d_21">
      <g>
       <use xlink:href="#m8a1b9de821" x="614.638197" y="333.698739" style="stroke: #000000; stroke-width: 0.6"/>
      </g>
     </g>
    </g>
    <g id="xtick_16">
     <g id="line2d_22">
      <g>
       <use xlink:href="#m8a1b9de821" x="637.355123" y="333.698739" style="stroke: #000000; stroke-width: 0.6"/>
      </g>
     </g>
    </g>
    <g id="xtick_17">
     <g id="line2d_23">
      <g>
       <use xlink:href="#m8a1b9de821" x="657.033419" y="333.698739" style="stroke: #000000; stroke-width: 0.6"/>
      </g>
     </g>
    </g>
    <g id="xtick_18">
     <g id="line2d_24">
      <g>
       <use xlink:href="#m8a1b9de821" x="674.390907" y="333.698739" style="stroke: #000000; stroke-width: 0.6"/>
      </g>
     </g>
    </g>
    <g id="text_7">
     <!-- Particle Diameter -->
     <g transform="translate(333.694291 358.797176) scale(0.1 -0.1)">
      <defs>
       <path id="DejaVuSans-33" d="M 1259 4147 
L 1259 2394 
L 2053 2394 
Q 2494 2394 2734 2622 
Q 2975 2850 2975 3272 
Q 2975 3691 2734 3919 
Q 2494 4147 2053 4147 
L 1259 4147 
z
M 628 4666 
L 2053 4666 
Q 2838 4666 3239 4311 
Q 3641 3956 3641 3272 
Q 3641 2581 3239 2228 
Q 2838 1875 2053 1875 
L 1259 1875 
L 1259 0 
L 628 0 
L 628 4666 
z
" transform="scale(0.015625)"/>
       <path id="DejaVuSans-44" d="M 2194 1759 
Q 1497 1759 1228 1600 
Q 959 1441 959 1056 
Q 959 750 1161 570 
Q 1363 391 1709 391 
Q 2188 391 2477 730 
Q 2766 1069 2766 1631 
L 2766 1759 
L 2194 1759 
z
M 3341 1997 
L 3341 0 
L 2766 0 
L 2766 531 
Q 2569 213 2275 61 
Q 1981 -91 1556 -91 
Q 1019 -91 701 211 
Q 384 513 384 1019 
Q 384 1609 779 1909 
Q 1175 2209 1959 2209 
L 2766 2209 
L 2766 2266 
Q 2766 2663 2505 2880 
Q 2244 3097 1772 3097 
Q 1472 3097 1187 3025 
Q 903 2953 641 2809 
L 641 3341 
Q 956 3463 1253 3523 
Q 1550 3584 1831 3584 
Q 2591 3584 2966 3190 
Q 3341 2797 3341 1997 
z
" transform="scale(0.015625)"/>
       <path id="DejaVuSans-55" d="M 2631 2963 
Q 2534 3019 2420 3045 
Q 2306 3072 2169 3072 
Q 1681 3072 1420 2755 
Q 1159 2438 1159 1844 
L 1159 0 
L 581 0 
L 581 3500 
L 1159 3500 
L 1159 2956 
Q 1341 3275 1631 3429 
Q 1922 3584 2338 3584 
Q 2397 3584 2469 3576 
Q 2541 3569 2628 3553 
L 2631 2963 
z
" transform="scale(0.015625)"/>
       <path id="DejaVuSans-57" d="M 1172 4494 
L 1172 3500 
L 2356 3500 
L 2356 3053 
L 1172 3053 
L 1172 1153 
Q 1172 725 1289 603 
Q 1406 481 1766 481 
L 2356 481 
L 2356 0 
L 1766 0 
Q 1100 0 847 248 
Q 594 497 594 1153 
L 594 3053 
L 172 3053 
L 172 3500 
L 594 3500 
L 594 4494 
L 1172 4494 
z
" transform="scale(0.015625)"/>
       <path id="DejaVuSans-4c" d="M 603 3500 
L 1178 3500 
L 1178 0 
L 603 0 
L 603 3500 
z
M 603 4863 
L 1178 4863 
L 1178 4134 
L 603 4134 
L 603 4863 
z
" transform="scale(0.015625)"/>
       <path id="DejaVuSans-46" d="M 3122 3366 
L 3122 2828 
Q 2878 2963 2633 3030 
Q 2388 3097 2138 3097 
Q 1578 3097 1268 2742 
Q 959 2388 959 1747 
Q 959 1106 1268 751 
Q 1578 397 2138 397 
Q 2388 397 2633 464 
Q 2878 531 3122 666 
L 3122 134 
Q 2881 22 2623 -34 
Q 2366 -91 2075 -91 
Q 1284 -91 818 406 
Q 353 903 353 1747 
Q 353 2603 823 3093 
Q 1294 3584 2113 3584 
Q 2378 3584 2631 3529 
Q 2884 3475 3122 3366 
z
" transform="scale(0.015625)"/>
       <path id="DejaVuSans-4f" d="M 603 4863 
L 1178 4863 
L 1178 0 
L 603 0 
L 603 4863 
z
" transform="scale(0.015625)"/>
       <path id="DejaVuSans-48" d="M 3597 1894 
L 3597 1613 
L 953 1613 
Q 991 1019 1311 708 
Q 1631 397 2203 397 
Q 2534 397 2845 478 
Q 3156 559 3463 722 
L 3463 178 
Q 3153 47 2828 -22 
Q 2503 -91 2169 -91 
Q 1331 -91 842 396 
Q 353 884 353 1716 
Q 353 2575 817 3079 
Q 1281 3584 2069 3584 
Q 2775 3584 3186 3129 
Q 3597 2675 3597 1894 
z
M 3022 2063 
Q 3016 2534 2758 2815 
Q 2500 3097 2075 3097 
Q 1594 3097 1305 2825 
Q 1016 2553 972 2059 
L 3022 2063 
z
" transform="scale(0.015625)"/>
       <path id="DejaVuSans-27" d="M 1259 4147 
L 1259 519 
L 2022 519 
Q 2988 519 3436 956 
Q 3884 1394 3884 2338 
Q 3884 3275 3436 3711 
Q 2988 4147 2022 4147 
L 1259 4147 
z
M 628 4666 
L 1925 4666 
Q 3281 4666 3915 4102 
Q 4550 3538 4550 2338 
Q 4550 1131 3912 565 
Q 3275 0 1925 0 
L 628 0 
L 628 4666 
z
" transform="scale(0.015625)"/>
      </defs>
      <use xlink:href="#DejaVuSans-33"/>
      <use xlink:href="#DejaVuSans-44" transform="translate(55.8125 0)"/>
      <use xlink:href="#DejaVuSans-55" transform="translate(117.09375 0)"/>
      <use xlink:href="#DejaVuSans-57" transform="translate(158.203125 0)"/>
      <use xlink:href="#DejaVuSans-4c" transform="translate(197.40625 0)"/>
      <use xlink:href="#DejaVuSans-46" transform="translate(225.1875 0)"/>
      <use xlink:href="#DejaVuSans-4f" transform="translate(280.171875 0)"/>
      <use xlink:href="#DejaVuSans-48" transform="translate(307.953125 0)"/>
      <use xlink:href="#DejaVuSans-3" transform="translate(369.484375 0)"/>
      <use xlink:href="#DejaVuSans-27" transform="translate(401.265625 0)"/>
      <use xlink:href="#DejaVuSans-4c" transform="translate(478.265625 0)"/>
      <use xlink:href="#DejaVuSans-44" transform="translate(506.046875 0)"/>
      <use xlink:href="#DejaVuSans-50" transform="translate(567.328125 0)"/>
      <use xlink:href="#DejaVuSans-48" transform="translate(664.734375 0)"/>
      <use xlink:href="#DejaVuSans-57" transform="translate(726.265625 0)"/>
      <use xlink:href="#DejaVuSans-48" transform="translate(765.46875 0)"/>
      <use xlink:href="#DejaVuSans-55" transform="translate(827 0)"/>
     </g>
    </g>
   </g>
   <g id="matplotlib.axis_2">
    <g id="ytick_1">
     <g id="line2d_25">
      <path d="M 33 333.698739 
L 721.19952 333.698739 
" clip-path="url(#p2db00c5072)" style="fill: none; stroke: #b0b0b0; stroke-opacity: 0.5; stroke-width: 0.5; stroke-linecap: square"/>
     </g>
     <g id="line2d_26">
      <defs>
       <path id="mf6dd96ed59" d="M 0 0 
L 3.5 0 
" style="stroke: #000000; stroke-width: 0.8"/>
      </defs>
      <g>
       <use xlink:href="#mf6dd96ed59" x="33" y="333.698739" style="stroke: #000000; stroke-width: 0.8"/>
      </g>
     </g>
     <g id="text_8">
      <!-- $\mathdefault{0.00}$ -->
      <g transform="translate(7.2 337.497567) scale(0.1 -0.1)">
       <defs>
        <path id="DejaVuSans-11" d="M 684 794 
L 1344 794 
L 1344 0 
L 684 0 
L 684 794 
z
" transform="scale(0.015625)"/>
       </defs>
       <use xlink:href="#DejaVuSans-13" transform="translate(0 0.78125)"/>
       <use xlink:href="#DejaVuSans-11" transform="translate(63.623047 0.78125)"/>
       <use xlink:href="#DejaVuSans-13" transform="translate(95.410156 0.78125)"/>
       <use xlink:href="#DejaVuSans-13" transform="translate(159.033203 0.78125)"/>
      </g>
     </g>
    </g>
    <g id="ytick_2">
     <g id="line2d_27">
      <path d="M 33 296.031303 
L 721.19952 296.031303 
" clip-path="url(#p2db00c5072)" style="fill: none; stroke: #b0b0b0; stroke-opacity: 0.5; stroke-width: 0.5; stroke-linecap: square"/>
     </g>
     <g id="line2d_28">
      <g>
       <use xlink:href="#mf6dd96ed59" x="33" y="296.031303" style="stroke: #000000; stroke-width: 0.8"/>
      </g>
     </g>
     <g id="text_9">
      <!-- $\mathdefault{0.25}$ -->
      <g transform="translate(7.2 299.830131) scale(0.1 -0.1)">
       <use xlink:href="#DejaVuSans-13" transform="translate(0 0.78125)"/>
       <use xlink:href="#DejaVuSans-11" transform="translate(63.623047 0.78125)"/>
       <use xlink:href="#DejaVuSans-15" transform="translate(95.410156 0.78125)"/>
       <use xlink:href="#DejaVuSans-18" transform="translate(159.033203 0.78125)"/>
      </g>
     </g>
    </g>
    <g id="ytick_3">
     <g id="line2d_29">
      <path d="M 33 258.363868 
L 721.19952 258.363868 
" clip-path="url(#p2db00c5072)" style="fill: none; stroke: #b0b0b0; stroke-opacity: 0.5; stroke-width: 0.5; stroke-linecap: square"/>
     </g>
     <g id="line2d_30">
      <g>
       <use xlink:href="#mf6dd96ed59" x="33" y="258.363868" style="stroke: #000000; stroke-width: 0.8"/>
      </g>
     </g>
     <g id="text_10">
      <!-- $\mathdefault{0.50}$ -->
      <g transform="translate(7.2 262.162696) scale(0.1 -0.1)">
       <use xlink:href="#DejaVuSans-13" transform="translate(0 0.78125)"/>
       <use xlink:href="#DejaVuSans-11" transform="translate(63.623047 0.78125)"/>
       <use xlink:href="#DejaVuSans-18" transform="translate(95.410156 0.78125)"/>
       <use xlink:href="#DejaVuSans-13" transform="translate(159.033203 0.78125)"/>
      </g>
     </g>
    </g>
    <g id="ytick_4">
     <g id="line2d_31">
      <path d="M 33 220.696432 
L 721.19952 220.696432 
" clip-path="url(#p2db00c5072)" style="fill: none; stroke: #b0b0b0; stroke-opacity: 0.5; stroke-width: 0.5; stroke-linecap: square"/>
     </g>
     <g id="line2d_32">
      <g>
       <use xlink:href="#mf6dd96ed59" x="33" y="220.696432" style="stroke: #000000; stroke-width: 0.8"/>
      </g>
     </g>
     <g id="text_11">
      <!-- $\mathdefault{0.75}$ -->
      <g transform="translate(7.2 224.49526) scale(0.1 -0.1)">
       <defs>
        <path id="DejaVuSans-1a" d="M 525 4666 
L 3525 4666 
L 3525 4397 
L 1831 0 
L 1172 0 
L 2766 4134 
L 525 4134 
L 525 4666 
z
" transform="scale(0.015625)"/>
       </defs>
       <use xlink:href="#DejaVuSans-13" transform="translate(0 0.78125)"/>
       <use xlink:href="#DejaVuSans-11" transform="translate(63.623047 0.78125)"/>
       <use xlink:href="#DejaVuSans-1a" transform="translate(95.410156 0.78125)"/>
       <use xlink:href="#DejaVuSans-18" transform="translate(159.033203 0.78125)"/>
      </g>
     </g>
    </g>
    <g id="ytick_5">
     <g id="line2d_33">
      <path d="M 33 183.028997 
L 721.19952 183.028997 
" clip-path="url(#p2db00c5072)" style="fill: none; stroke: #b0b0b0; stroke-opacity: 0.5; stroke-width: 0.5; stroke-linecap: square"/>
     </g>
     <g id="line2d_34">
      <g>
       <use xlink:href="#mf6dd96ed59" x="33" y="183.028997" style="stroke: #000000; stroke-width: 0.8"/>
      </g>
     </g>
     <g id="text_12">
      <!-- $\mathdefault{1.00}$ -->
      <g transform="translate(7.2 186.827825) scale(0.1 -0.1)">
       <use xlink:href="#DejaVuSans-14" transform="translate(0 0.78125)"/>
       <use xlink:href="#DejaVuSans-11" transform="translate(63.623047 0.78125)"/>
       <use xlink:href="#DejaVuSans-13" transform="translate(95.410156 0.78125)"/>
       <use xlink:href="#DejaVuSans-13" transform="translate(159.033203 0.78125)"/>
      </g>
     </g>
    </g>
    <g id="ytick_6">
     <g id="line2d_35">
      <path d="M 33 145.361561 
L 721.19952 145.361561 
" clip-path="url(#p2db00c5072)" style="fill: none; stroke: #b0b0b0; stroke-opacity: 0.5; stroke-width: 0.5; stroke-linecap: square"/>
     </g>
     <g id="line2d_36">
      <g>
       <use xlink:href="#mf6dd96ed59" x="33" y="145.361561" style="stroke: #000000; stroke-width: 0.8"/>
      </g>
     </g>
     <g id="text_13">
      <!-- $\mathdefault{1.25}$ -->
      <g transform="translate(7.2 149.160389) scale(0.1 -0.1)">
       <use xlink:href="#DejaVuSans-14" transform="translate(0 0.78125)"/>
       <use xlink:href="#DejaVuSans-11" transform="translate(63.623047 0.78125)"/>
       <use xlink:href="#DejaVuSans-15" transform="translate(95.410156 0.78125)"/>
       <use xlink:href="#DejaVuSans-18" transform="translate(159.033203 0.78125)"/>
      </g>
     </g>
    </g>
    <g id="ytick_7">
     <g id="line2d_37">
      <path d="M 33 107.694126 
L 721.19952 107.694126 
" clip-path="url(#p2db00c5072)" style="fill: none; stroke: #b0b0b0; stroke-opacity: 0.5; stroke-width: 0.5; stroke-linecap: square"/>
     </g>
     <g id="line2d_38">
      <g>
       <use xlink:href="#mf6dd96ed59" x="33" y="107.694126" style="stroke: #000000; stroke-width: 0.8"/>
      </g>
     </g>
     <g id="text_14">
      <!-- $\mathdefault{1.50}$ -->
      <g transform="translate(7.2 111.492954) scale(0.1 -0.1)">
       <use xlink:href="#DejaVuSans-14" transform="translate(0 0.78125)"/>
       <use xlink:href="#DejaVuSans-11" transform="translate(63.623047 0.78125)"/>
       <use xlink:href="#DejaVuSans-18" transform="translate(95.410156 0.78125)"/>
       <use xlink:href="#DejaVuSans-13" transform="translate(159.033203 0.78125)"/>
      </g>
     </g>
    </g>
    <g id="ytick_8">
     <g id="line2d_39">
      <path d="M 33 70.02669 
L 721.19952 70.02669 
" clip-path="url(#p2db00c5072)" style="fill: none; stroke: #b0b0b0; stroke-opacity: 0.5; stroke-width: 0.5; stroke-linecap: square"/>
     </g>
     <g id="line2d_40">
      <g>
       <use xlink:href="#mf6dd96ed59" x="33" y="70.02669" style="stroke: #000000; stroke-width: 0.8"/>
      </g>
     </g>
     <g id="text_15">
      <!-- $\mathdefault{1.75}$ -->
      <g transform="translate(7.2 73.825518) scale(0.1 -0.1)">
       <use xlink:href="#DejaVuSans-14" transform="translate(0 0.09375)"/>
       <use xlink:href="#DejaVuSans-11" transform="translate(63.623047 0.09375)"/>
       <use xlink:href="#DejaVuSans-1a" transform="translate(95.410156 0.09375)"/>
       <use xlink:href="#DejaVuSans-18" transform="translate(159.033203 0.09375)"/>
      </g>
     </g>
    </g>
    <g id="text_16">
     <!-- $\times\mathdefault{10^{2}}\mathdefault{}$ -->
     <g transform="translate(33 34.601417) scale(0.1 -0.1)">
      <defs>
       <path id="DejaVuSans-99" d="M 4488 3438 
L 3059 2003 
L 4488 575 
L 4116 197 
L 2681 1631 
L 1247 197 
L 878 575 
L 2303 2003 
L 878 3438 
L 1247 3816 
L 2681 2381 
L 4116 3816 
L 4488 3438 
z
" transform="scale(0.015625)"/>
      </defs>
      <use xlink:href="#DejaVuSans-99" transform="translate(0 0.746875)"/>
      <use xlink:href="#DejaVuSans-14" transform="translate(83.789062 0.746875)"/>
      <use xlink:href="#DejaVuSans-13" transform="translate(147.412109 0.746875)"/>
      <use xlink:href="#DejaVuSans-15" transform="translate(211.992188 42.046875) scale(0.7)"/>
     </g>
    </g>
   </g>
   <g id="patch_239">
    <path d="M 33 333.698739 
L 33 37.601417 
" style="fill: none; stroke: #000000; stroke-width: 0.8; stroke-linejoin: miter; stroke-linecap: square"/>
   </g>
   <g id="patch_240">
    <path d="M 721.19952 333.698739 
L 721.19952 37.601417 
" style="fill: none; stroke: #000000; stroke-width: 0.8; stroke-linejoin: miter; stroke-linecap: square"/>
   </g>
   <g id="patch_241">
    <path d="M 33 333.698739 
L 721.19952 333.698739 
" style="fill: none; stroke: #000000; stroke-width: 0.8; stroke-linejoin: miter; stroke-linecap: square"/>
   </g>
   <g id="patch_242">
    <path d="M 33 37.601417 
L 721.19952 37.601417 
" style="fill: none; stroke: #000000; stroke-width: 0.8; stroke-linejoin: miter; stroke-linecap: square"/>
   </g>
   <g id="legend_1">
    <g id="patch_243">
     <path d="M 606.007332 277.294051 
L 626.007332 277.294051 
L 626.007332 270.294051 
L 606.007332 270.294051 
z
" style="fill: #648fff; stroke: #000000; stroke-width: 0.25; stroke-linejoin: miter"/>
    </g>
    <g id="text_17">
     <!-- Measurement 2 -->
     <g transform="translate(634.007332 277.294051) scale(0.1 -0.1)">
      <defs>
       <path id="DejaVuSans-30" d="M 628 4666 
L 1569 4666 
L 2759 1491 
L 3956 4666 
L 4897 4666 
L 4897 0 
L 4281 0 
L 4281 4097 
L 3078 897 
L 2444 897 
L 1241 4097 
L 1241 0 
L 628 0 
L 628 4666 
z
" transform="scale(0.015625)"/>
       <path id="DejaVuSans-56" d="M 2834 3397 
L 2834 2853 
Q 2591 2978 2328 3040 
Q 2066 3103 1784 3103 
Q 1356 3103 1142 2972 
Q 928 2841 928 2578 
Q 928 2378 1081 2264 
Q 1234 2150 1697 2047 
L 1894 2003 
Q 2506 1872 2764 1633 
Q 3022 1394 3022 966 
Q 3022 478 2636 193 
Q 2250 -91 1575 -91 
Q 1294 -91 989 -36 
Q 684 19 347 128 
L 347 722 
Q 666 556 975 473 
Q 1284 391 1588 391 
Q 1994 391 2212 530 
Q 2431 669 2431 922 
Q 2431 1156 2273 1281 
Q 2116 1406 1581 1522 
L 1381 1569 
Q 847 1681 609 1914 
Q 372 2147 372 2553 
Q 372 3047 722 3315 
Q 1072 3584 1716 3584 
Q 2034 3584 2315 3537 
Q 2597 3491 2834 3397 
z
" transform="scale(0.015625)"/>
       <path id="DejaVuSans-58" d="M 544 1381 
L 544 3500 
L 1119 3500 
L 1119 1403 
Q 1119 906 1312 657 
Q 1506 409 1894 409 
Q 2359 409 2629 706 
Q 2900 1003 2900 1516 
L 2900 3500 
L 3475 3500 
L 3475 0 
L 2900 0 
L 2900 538 
Q 2691 219 2414 64 
Q 2138 -91 1772 -91 
Q 1169 -91 856 284 
Q 544 659 544 1381 
z
M 1991 3584 
L 1991 3584 
z
" transform="scale(0.015625)"/>
      </defs>
      <use xlink:href="#DejaVuSans-30"/>
      <use xlink:href="#DejaVuSans-48" transform="translate(86.28125 0)"/>
      <use xlink:href="#DejaVuSans-44" transform="translate(147.8125 0)"/>
      <use xlink:href="#DejaVuSans-56" transform="translate(209.09375 0)"/>
      <use xlink:href="#DejaVuSans-58" transform="translate(261.1875 0)"/>
      <use xlink:href="#DejaVuSans-55" transform="translate(324.5625 0)"/>
      <use xlink:href="#DejaVuSans-48" transform="translate(363.46875 0)"/>
      <use xlink:href="#DejaVuSans-50" transform="translate(425 0)"/>
      <use xlink:href="#DejaVuSans-48" transform="translate(522.40625 0)"/>
      <use xlink:href="#DejaVuSans-51" transform="translate(583.9375 0)"/>
      <use xlink:href="#DejaVuSans-57" transform="translate(647.3125 0)"/>
      <use xlink:href="#DejaVuSans-3" transform="translate(686.515625 0)"/>
      <use xlink:href="#DejaVuSans-15" transform="translate(718.296875 0)"/>
     </g>
    </g>
    <g id="patch_244">
     <path d="M 606.007332 292.294832 
L 626.007332 292.294832 
L 626.007332 285.294832 
L 606.007332 285.294832 
z
" style="fill: #785ef0; stroke: #000000; stroke-width: 0.25; stroke-linejoin: miter"/>
    </g>
    <g id="text_18">
     <!-- Measurement 3 -->
     <g transform="translate(634.007332 292.294832) scale(0.1 -0.1)">
      <defs>
       <path id="DejaVuSans-16" d="M 2597 2516 
Q 3050 2419 3304 2112 
Q 3559 1806 3559 1356 
Q 3559 666 3084 287 
Q 2609 -91 1734 -91 
Q 1441 -91 1130 -33 
Q 819 25 488 141 
L 488 750 
Q 750 597 1062 519 
Q 1375 441 1716 441 
Q 2309 441 2620 675 
Q 2931 909 2931 1356 
Q 2931 1769 2642 2001 
Q 2353 2234 1838 2234 
L 1294 2234 
L 1294 2753 
L 1863 2753 
Q 2328 2753 2575 2939 
Q 2822 3125 2822 3475 
Q 2822 3834 2567 4026 
Q 2313 4219 1838 4219 
Q 1578 4219 1281 4162 
Q 984 4106 628 3988 
L 628 4550 
Q 988 4650 1302 4700 
Q 1616 4750 1894 4750 
Q 2613 4750 3031 4423 
Q 3450 4097 3450 3541 
Q 3450 3153 3228 2886 
Q 3006 2619 2597 2516 
z
" transform="scale(0.015625)"/>
      </defs>
      <use xlink:href="#DejaVuSans-30"/>
      <use xlink:href="#DejaVuSans-48" transform="translate(86.28125 0)"/>
      <use xlink:href="#DejaVuSans-44" transform="translate(147.8125 0)"/>
      <use xlink:href="#DejaVuSans-56" transform="translate(209.09375 0)"/>
      <use xlink:href="#DejaVuSans-58" transform="translate(261.1875 0)"/>
      <use xlink:href="#DejaVuSans-55" transform="translate(324.5625 0)"/>
      <use xlink:href="#DejaVuSans-48" transform="translate(363.46875 0)"/>
      <use xlink:href="#DejaVuSans-50" transform="translate(425 0)"/>
      <use xlink:href="#DejaVuSans-48" transform="translate(522.40625 0)"/>
      <use xlink:href="#DejaVuSans-51" transform="translate(583.9375 0)"/>
      <use xlink:href="#DejaVuSans-57" transform="translate(647.3125 0)"/>
      <use xlink:href="#DejaVuSans-3" transform="translate(686.515625 0)"/>
      <use xlink:href="#DejaVuSans-16" transform="translate(718.296875 0)"/>
     </g>
    </g>
    <g id="patch_245">
     <path d="M 606.007332 307.295614 
L 626.007332 307.295614 
L 626.007332 300.295614 
L 606.007332 300.295614 
z
" style="fill: #dc267f; stroke: #000000; stroke-width: 0.25; stroke-linejoin: miter"/>
    </g>
    <g id="text_19">
     <!-- Measurement 4 -->
     <g transform="translate(634.007332 307.295614) scale(0.1 -0.1)">
      <defs>
       <path id="DejaVuSans-17" d="M 2419 4116 
L 825 1625 
L 2419 1625 
L 2419 4116 
z
M 2253 4666 
L 3047 4666 
L 3047 1625 
L 3713 1625 
L 3713 1100 
L 3047 1100 
L 3047 0 
L 2419 0 
L 2419 1100 
L 313 1100 
L 313 1709 
L 2253 4666 
z
" transform="scale(0.015625)"/>
      </defs>
      <use xlink:href="#DejaVuSans-30"/>
      <use xlink:href="#DejaVuSans-48" transform="translate(86.28125 0)"/>
      <use xlink:href="#DejaVuSans-44" transform="translate(147.8125 0)"/>
      <use xlink:href="#DejaVuSans-56" transform="translate(209.09375 0)"/>
      <use xlink:href="#DejaVuSans-58" transform="translate(261.1875 0)"/>
      <use xlink:href="#DejaVuSans-55" transform="translate(324.5625 0)"/>
      <use xlink:href="#DejaVuSans-48" transform="translate(363.46875 0)"/>
      <use xlink:href="#DejaVuSans-50" transform="translate(425 0)"/>
      <use xlink:href="#DejaVuSans-48" transform="translate(522.40625 0)"/>
      <use xlink:href="#DejaVuSans-51" transform="translate(583.9375 0)"/>
      <use xlink:href="#DejaVuSans-57" transform="translate(647.3125 0)"/>
      <use xlink:href="#DejaVuSans-3" transform="translate(686.515625 0)"/>
      <use xlink:href="#DejaVuSans-17" transform="translate(718.296875 0)"/>
     </g>
    </g>
    <g id="patch_246">
     <path d="M 606.007332 322.296395 
L 626.007332 322.296395 
L 626.007332 315.296395 
L 606.007332 315.296395 
z
" style="fill: #fe6100; stroke: #000000; stroke-width: 0.25; stroke-linejoin: miter"/>
    </g>
    <g id="text_20">
     <!-- Measurement 5 -->
     <g transform="translate(634.007332 322.296395) scale(0.1 -0.1)">
      <use xlink:href="#DejaVuSans-30"/>
      <use xlink:href="#DejaVuSans-48" transform="translate(86.28125 0)"/>
      <use xlink:href="#DejaVuSans-44" transform="translate(147.8125 0)"/>
      <use xlink:href="#DejaVuSans-56" transform="translate(209.09375 0)"/>
      <use xlink:href="#DejaVuSans-58" transform="translate(261.1875 0)"/>
      <use xlink:href="#DejaVuSans-55" transform="translate(324.5625 0)"/>
      <use xlink:href="#DejaVuSans-48" transform="translate(363.46875 0)"/>
      <use xlink:href="#DejaVuSans-50" transform="translate(425 0)"/>
      <use xlink:href="#DejaVuSans-48" transform="translate(522.40625 0)"/>
      <use xlink:href="#DejaVuSans-51" transform="translate(583.9375 0)"/>
      <use xlink:href="#DejaVuSans-57" transform="translate(647.3125 0)"/>
      <use xlink:href="#DejaVuSans-3" transform="translate(686.515625 0)"/>
      <use xlink:href="#DejaVuSans-18" transform="translate(718.296875 0)"/>
     </g>
    </g>
   </g>
  </g>
  <g id="text_21">
   <!-- Histogram of four measurements -->
   <g transform="translate(264.534135 16.318125) scale(0.12 -0.12)">
    <defs>
     <path id="DejaVuSans-2b" d="M 628 4666 
L 1259 4666 
L 1259 2753 
L 3553 2753 
L 3553 4666 
L 4184 4666 
L 4184 0 
L 3553 0 
L 3553 2222 
L 1259 2222 
L 1259 0 
L 628 0 
L 628 4666 
z
" transform="scale(0.015625)"/>
     <path id="DejaVuSans-52" d="M 1959 3097 
Q 1497 3097 1228 2736 
Q 959 2375 959 1747 
Q 959 1119 1226 758 
Q 1494 397 1959 397 
Q 2419 397 2687 759 
Q 2956 1122 2956 1747 
Q 2956 2369 2687 2733 
Q 2419 3097 1959 3097 
z
M 1959 3584 
Q 2709 3584 3137 3096 
Q 3566 2609 3566 1747 
Q 3566 888 3137 398 
Q 2709 -91 1959 -91 
Q 1206 -91 779 398 
Q 353 888 353 1747 
Q 353 2609 779 3096 
Q 1206 3584 1959 3584 
z
" transform="scale(0.015625)"/>
     <path id="DejaVuSans-4a" d="M 2906 1791 
Q 2906 2416 2648 2759 
Q 2391 3103 1925 3103 
Q 1463 3103 1205 2759 
Q 947 2416 947 1791 
Q 947 1169 1205 825 
Q 1463 481 1925 481 
Q 2391 481 2648 825 
Q 2906 1169 2906 1791 
z
M 3481 434 
Q 3481 -459 3084 -895 
Q 2688 -1331 1869 -1331 
Q 1566 -1331 1297 -1286 
Q 1028 -1241 775 -1147 
L 775 -588 
Q 1028 -725 1275 -790 
Q 1522 -856 1778 -856 
Q 2344 -856 2625 -561 
Q 2906 -266 2906 331 
L 2906 616 
Q 2728 306 2450 153 
Q 2172 0 1784 0 
Q 1141 0 747 490 
Q 353 981 353 1791 
Q 353 2603 747 3093 
Q 1141 3584 1784 3584 
Q 2172 3584 2450 3431 
Q 2728 3278 2906 2969 
L 2906 3500 
L 3481 3500 
L 3481 434 
z
" transform="scale(0.015625)"/>
     <path id="DejaVuSans-49" d="M 2375 4863 
L 2375 4384 
L 1825 4384 
Q 1516 4384 1395 4259 
Q 1275 4134 1275 3809 
L 1275 3500 
L 2222 3500 
L 2222 3053 
L 1275 3053 
L 1275 0 
L 697 0 
L 697 3053 
L 147 3053 
L 147 3500 
L 697 3500 
L 697 3744 
Q 697 4328 969 4595 
Q 1241 4863 1831 4863 
L 2375 4863 
z
" transform="scale(0.015625)"/>
    </defs>
    <use xlink:href="#DejaVuSans-2b"/>
    <use xlink:href="#DejaVuSans-4c" transform="translate(75.203125 0)"/>
    <use xlink:href="#DejaVuSans-56" transform="translate(102.984375 0)"/>
    <use xlink:href="#DejaVuSans-57" transform="translate(155.078125 0)"/>
    <use xlink:href="#DejaVuSans-52" transform="translate(194.28125 0)"/>
    <use xlink:href="#DejaVuSans-4a" transform="translate(255.46875 0)"/>
    <use xlink:href="#DejaVuSans-55" transform="translate(318.953125 0)"/>
    <use xlink:href="#DejaVuSans-44" transform="translate(360.0625 0)"/>
    <use xlink:href="#DejaVuSans-50" transform="translate(421.34375 0)"/>
    <use xlink:href="#DejaVuSans-3" transform="translate(518.75 0)"/>
    <use xlink:href="#DejaVuSans-52" transform="translate(550.53125 0)"/>
    <use xlink:href="#DejaVuSans-49" transform="translate(611.71875 0)"/>
    <use xlink:href="#DejaVuSans-3" transform="translate(646.921875 0)"/>
    <use xlink:href="#DejaVuSans-49" transform="translate(678.703125 0)"/>
    <use xlink:href="#DejaVuSans-52" transform="translate(713.90625 0)"/>
    <use xlink:href="#DejaVuSans-58" transform="translate(775.09375 0)"/>
    <use xlink:href="#DejaVuSans-55" transform="translate(838.46875 0)"/>
    <use xlink:href="#DejaVuSans-3" transform="translate(879.578125 0)"/>
    <use xlink:href="#DejaVuSans-50" transform="translate(911.359375 0)"/>
    <use xlink:href="#DejaVuSans-48" transform="translate(1008.765625 0)"/>
    <use xlink:href="#DejaVuSans-44" transform="translate(1070.296875 0)"/>
    <use xlink:href="#DejaVuSans-56" transform="translate(1131.578125 0)"/>
    <use xlink:href="#DejaVuSans-58" transform="translate(1183.671875 0)"/>
    <use xlink:href="#DejaVuSans-55" transform="translate(1247.046875 0)"/>
    <use xlink:href="#DejaVuSans-48" transform="translate(1285.953125 0)"/>
    <use xlink:href="#DejaVuSans-50" transform="translate(1347.484375 0)"/>
    <use xlink:href="#DejaVuSans-48" transform="translate(1444.890625 0)"/>
    <use xlink:href="#DejaVuSans-51" transform="translate(1506.421875 0)"/>
    <use xlink:href="#DejaVuSans-57" transform="translate(1569.796875 0)"/>
    <use xlink:href="#DejaVuSans-56" transform="translate(1609 0)"/>
   </g>
  </g>
 </g>
 <defs>
  <clipPath id="p2db00c5072">
   <rect x="33" y="37.601417" width="688.19952" height="296.097321"/>
  </clipPath>
 </defs>
</svg>
